<svg xmlns="http://www.w3.org/2000/svg" width="295" height="233" fill="none" viewBox="0 0 295 233"><path fill="url(#a)" stroke="#0500FF" stroke-linecap="round" stroke-linejoin="round" stroke-width=".483" d="M25.99 132.666c14.001 9.965 33.429 6.693 43.394-7.307 9.964-14.001 6.692-33.428-7.308-43.393-14-9.965-33.428-6.693-43.393 7.308-9.965 14-6.693 33.428 7.308 43.392Z"/><path fill="#0500FF" d="M61.304 83.052c-13.402-9.538-32-6.406-41.538 6.995-9.539 13.402-6.407 32 6.995 41.538 13.402 9.539 32 6.407 41.538-6.995 9.538-13.402 6.406-32-6.995-41.538ZM31.87 117.05c-5.363-14.121-7.82-34.874 7.493-37.453 15.312-2.578 29.812 7.742 32.39 23.054 2.096 12.44-4.69 23.735-15.02 29.756-6.065 3.534-19.35-.843-24.863-15.357Z"/><path fill="url(#b)" stroke="#0500FF" stroke-linecap="round" stroke-linejoin="round" stroke-width=".483" d="M74.739 102.31c.172 8.759-44.609-1.752-53.915-10.132-2.416-2.176-1.771-3.32-1.45-3.829-.233.304-.467.609-.692.925-4.83 6.787-6.542 14.851-5.436 22.493 2.963 9.156 49.579 20.915 55.772 14.081.121-.163.249-.322.367-.488 4.948-6.953 6.628-15.243 5.355-23.049l-.001-.001Z"/><path fill="#1B1B1C" stroke="#0500FF" stroke-linecap="round" stroke-linejoin="round" stroke-width=".483" d="M48.478 113.109c-19.035-5.583-35.506-6.229-35.25-1.381 2.848 9.186 49.81 21.022 55.834 14.074 1.71-3.282-6.37-8.263-20.584-12.693Z"/><path fill="#fff" stroke="#0500FF" stroke-width=".483" d="M29.68 113.866a61.688 61.688 0 0 0-.84 5.037 90.609 90.609 0 0 1-3.51-1.36c.538-5.394 1.488-10.19 4.45-17.22 2.033.816 2.567 1.026 4.725 1.793.724 2.635.919 3.325 2.172 6.858l.002.004c1.383 3.675 1.673 4.385 2.75 7.018l.28.686.178-.72a447.606 447.606 0 0 1 2.907-11.298c1.404.378 2.803.727 4.186 1.049-.68 3.04-1.42 6.152-2.205 9.254a276.594 276.594 0 0 1-2.145 8 121.594 121.594 0 0 1-5.592-1.437c-1.672-3.372-1.758-3.567-3.015-6.41l-.002-.004c-1.087-2.773-1.344-3.429-2.464-7.012l-.248-.792-.216.802-.046.172c-.773 2.872-.887 3.295-1.367 5.58Z"/><mask id="c" fill="#fff"><path d="M63.526 112.012c-1.955-.124-5.225-.327-10.19-1.171a97.083 97.083 0 0 1-.721 3.447c3.285.525 4.486.703 7.901 1.025a53.243 53.243 0 0 1-.938 3.785c-2.997-.292-4.126-.412-7.912-1.026a77.27 77.27 0 0 1-2.088 6.542c-2.719-.489-3.068-.551-5.21-1.009a175.16 175.16 0 0 0 2.281-8.212 219.246 219.246 0 0 0 2.179-9.51c4.18.867 9.136 1.817 15.034 2.133a48.743 48.743 0 0 1-.338 3.998"/></mask><path fill="#fff" d="M63.526 112.012c-1.955-.124-5.225-.327-10.19-1.171a97.083 97.083 0 0 1-.721 3.447c3.285.525 4.486.703 7.901 1.025a53.243 53.243 0 0 1-.938 3.785c-2.997-.292-4.126-.412-7.912-1.026a77.27 77.27 0 0 1-2.088 6.542c-2.719-.489-3.068-.551-5.21-1.009a175.16 175.16 0 0 0 2.281-8.212 219.246 219.246 0 0 0 2.179-9.51c4.18.867 9.136 1.817 15.034 2.133a48.743 48.743 0 0 1-.338 3.998"/><path fill="#0500FF" d="m53.335 110.841.081-.476-.467-.079-.088.466.474.089Zm-.72 3.447-.47-.107-.115.503.509.081.076-.477Zm7.901 1.025.473.098.11-.528-.537-.051-.046.481Zm-.499 2.161-.468-.12v.001l.468.119Zm-.439 1.624-.047.48.4.039.111-.386-.464-.133Zm-7.912-1.026.078-.477-.429-.069-.114.419.465.127Zm-2.088 6.542-.085.475.397.071.14-.378-.452-.168Zm-5.21-1.009-.462-.141-.153.504.514.11.101-.473Zm2.281-8.212.468.119-.468-.119Zm2.179-9.51.098-.473-.474-.098-.097.474.473.097Zm15.034 2.133.482.021.021-.478-.477-.025-.026.482Zm-.306 3.514c-1.948-.123-5.198-.326-10.14-1.165l-.162.952c4.99.848 8.28 1.053 10.241 1.176l.061-.963Zm-10.695-.778a97.008 97.008 0 0 1-.717 3.429l.942.214c.262-1.153.505-2.309.724-3.464l-.95-.179Zm-.322 4.013c3.291.526 4.504.705 7.932 1.028l.09-.961c-3.401-.32-4.592-.497-7.87-1.021l-.152.954Zm7.505.45c-.149.715-.314 1.43-.495 2.139l.936.239a50.24 50.24 0 0 0 .504-2.182l-.945-.196Zm-.495 2.14c-.138.545-.283 1.08-.435 1.61l.928.266a52.68 52.68 0 0 0 .443-1.639l-.936-.237Zm.076 1.262c-2.99-.29-4.107-.409-7.881-1.022l-.155.953c3.798.617 4.937.738 7.942 1.03l.094-.961Zm-8.424-.672a76.872 76.872 0 0 1-2.075 6.501l.905.336a77.783 77.783 0 0 0 2.101-6.583l-.931-.254Zm-1.537 6.194c-2.717-.489-3.06-.55-5.195-1.006l-.202.945c2.15.458 2.505.521 5.226 1.011l.17-.95Zm-4.834-.392c.761-2.49 1.532-5.25 2.287-8.235l-.936-.237a175.028 175.028 0 0 1-2.274 8.189l.923.283Zm2.287-8.235a219.56 219.56 0 0 0 2.183-9.532l-.945-.194a219.547 219.547 0 0 1-2.174 9.489l.936.237Zm1.613-9.156c4.186.868 9.17 1.824 15.106 2.142l.052-.964c-5.861-.314-10.788-1.258-14.962-2.124l-.196.946Zm14.65 1.639a48.266 48.266 0 0 1-.335 3.958l.958.121c.171-1.348.282-2.697.341-4.037l-.964-.042Z" mask="url(#c)"/><path fill="#fff" stroke="#0500FF" stroke-width=".483" d="M74.321 106.749c.029 1.064.043 2.332.013 3.338a5.387 5.387 0 0 1-.773.544c-.34.191-.785.381-1.46.575l-.162.046-.012.168a32.496 32.496 0 0 1-.903 5.574 30.248 30.248 0 0 1-3.267 7.987c-1.085.248-1.356.307-2.191.402 1.274-2.335 2.3-4.935 3.015-7.768.474-1.876.793-3.769.965-5.662l.026-.29-.29.028c-1.386.134-2.986.173-4.757.118.102-1.085.216-2.432.278-3.519 2.232.037 4.201-.013 5.847-.263 1.487-.227 2.731-.62 3.671-1.278Z"/><path fill="url(#d)" stroke="#0500FF" stroke-linecap="round" stroke-linejoin="round" stroke-width=".483" d="M278.393 139.743c8.83-3.101 13.475-12.773 10.374-21.603-3.1-8.83-12.772-13.474-21.602-10.374-8.83 3.101-13.475 12.773-10.374 21.603 3.1 8.83 12.772 13.474 21.602 10.374Z"/><path fill="#0500FF" d="M267.406 108.451c-8.452 2.968-12.898 12.226-9.93 20.678 2.968 8.453 12.226 12.899 20.678 9.931 8.453-2.968 12.899-12.226 9.931-20.679-2.968-8.452-12.226-12.898-20.679-9.93Zm5.885 23.771c-7.967-2.048-17.972-7.472-14.312-15.094 3.661-7.623 12.806-10.834 20.429-7.174 6.193 2.974 9.088 9.54 8.523 16.028-.332 3.808-6.451 8.344-14.64 6.24Z"/><path fill="url(#e)" stroke="#0500FF" stroke-linecap="round" stroke-linejoin="round" stroke-width=".483" d="M280.193 108.521c3.951 2.673-14.787 19.298-21.438 20.807-1.727.392-2.033-.254-2.159-.557.062.2.124.399.194.598a16.88 16.88 0 0 0 8.302 9.482c5.004 1.557 24.874-15.492 23.777-20.394-.034-.105-.065-.212-.101-.316a16.891 16.891 0 0 0-8.574-9.621l-.001.001Z"/><path fill="#1B1B1C" stroke="#0500FF" stroke-linecap="round" stroke-linejoin="round" stroke-width=".483" d="M276.752 123.596c-8.461 6.716-13.92 13.842-11.683 15.25 4.981 1.618 24.995-15.561 23.795-20.423-.924-1.792-5.677.239-12.112 5.173Z"/><path fill="#fff" stroke="#0500FF" stroke-width=".483" d="M272.987 134.142a34.016 34.016 0 0 1-1.882-1.868v-.001c-.868-.933-1.022-1.118-2.058-2.365l-.062-.074-.53-.639.79.254c1.942.626 2.313.717 3.884 1.103l.002.001c1.643.329 1.767.354 3.744.662a66.509 66.509 0 0 0 2.275-1.934 148.99 148.99 0 0 0-2.818-3.382l-3.345 8.243Zm0 0c-.521.359-1.028.696-1.521 1.01-2.177-1.892-3.979-3.793-6.125-7.217m7.646 6.207-7.646-6.207m0 0a49.985 49.985 0 0 0 2.148-1.45c1.358.49 1.744.624 3.687 1.17l.005.001c2.07.538 2.478.633 3.989.98l.722.166-.486-.559a243.862 243.862 0 0 1-4.042-4.755c.552-.46 1.092-.926 1.618-1.393a188.686 188.686 0 0 1 3.35 3.804l-10.991 2.036Z"/><mask id="f" fill="#fff"><path d="M280.988 116.557a48.834 48.834 0 0 1-3.72 4.166c.442.458.878.926 1.307 1.403 1.265-1.297 1.722-1.775 2.937-3.194a27.512 27.512 0 0 1 1.39 1.606c-1.071 1.242-1.479 1.707-2.941 3.198a41.911 41.911 0 0 1 2.255 2.984 64.046 64.046 0 0 1-2.085 2.001 94.52 94.52 0 0 0-2.937-3.593 119.609 119.609 0 0 0-3.548-3.956c1.698-1.588 3.677-3.495 5.67-6.02.572.443 1.132.912 1.673 1.406"/></mask><path fill="#fff" d="M280.988 116.557a48.834 48.834 0 0 1-3.72 4.166c.442.458.878.926 1.307 1.403 1.265-1.297 1.722-1.775 2.937-3.194a27.512 27.512 0 0 1 1.39 1.606c-1.071 1.242-1.479 1.707-2.941 3.198a41.911 41.911 0 0 1 2.255 2.984 64.046 64.046 0 0 1-2.085 2.001 94.52 94.52 0 0 0-2.937-3.593 119.609 119.609 0 0 0-3.548-3.956c1.698-1.588 3.677-3.495 5.67-6.02.572.443 1.132.912 1.673 1.406"/><path fill="#0500FF" d="m277.268 120.723-.343-.34-.334.336.33.34.347-.336Zm1.307 1.403-.359.323.345.383.36-.369-.346-.337Zm2.937-3.194.353-.33-.369-.394-.35.41.366.314Zm.805.901-.367.313v.001l.367-.314Zm.585.705.365.315.263-.304-.252-.313-.376.302Zm-2.941 3.198-.345-.338-.304.31.276.335.373-.307Zm2.255 2.984.339.343.287-.283-.228-.333-.398.273Zm-2.085 2.001-.381.296.322.416.387-.357-.328-.355Zm-2.937-3.593.366-.315-.366.315Zm-3.548-3.956-.33-.353-.353.331.331.352.352-.33Zm5.67-6.02.295-.382-.378-.292-.296.375.379.299Zm1.296 1.102c-.664.826-1.769 2.202-3.687 4.129l.685.681c1.952-1.963 3.081-3.368 3.754-4.205l-.752-.605Zm-3.691 4.805c.438.453.87.917 1.295 1.39l.718-.646c-.433-.48-.872-.954-1.319-1.415l-.694.671Zm2 1.404c1.269-1.301 1.734-1.788 2.958-3.217l-.733-.628c-1.207 1.408-1.656 1.879-2.916 3.171l.691.674Zm2.238-3.201c.27.288.534.584.791.884l.734-.627c-.266-.311-.54-.618-.819-.917l-.706.66Zm.791.885c.198.23.389.461.575.693l.753-.604c-.192-.24-.39-.479-.595-.718l-.733.629Zm.586.076c-1.065 1.236-1.466 1.692-2.92 3.175l.69.676c1.47-1.5 1.885-1.972 2.961-3.221l-.731-.63Zm-2.948 3.82a41.878 41.878 0 0 1 2.23 2.949l.796-.545a42.725 42.725 0 0 0-2.281-3.018l-.745.614Zm2.289 2.333c-1.07 1.054-1.203 1.186-2.073 1.991l.655.709c.882-.815 1.023-.955 2.096-2.013l-.678-.687Zm-1.364 2.049a96.548 96.548 0 0 0-2.953-3.612l-.733.629a95.218 95.218 0 0 1 2.923 3.575l.763-.592Zm-2.953-3.612a119.399 119.399 0 0 0-3.562-3.971l-.704.66a118.515 118.515 0 0 1 3.533 3.94l.733-.629Zm-3.584-3.288c1.703-1.593 3.703-3.519 5.719-6.074l-.758-.598c-1.969 2.496-3.927 4.383-5.621 5.966l.66.706Zm5.045-5.991c.562.435 1.112.895 1.642 1.38l.652-.713a27.337 27.337 0 0 0-1.704-1.431l-.59.764Z" mask="url(#f)"/><path fill="#fff" stroke="#0500FF" stroke-width=".483" d="M282.139 110.301c.427.287.9.615 1.28.899.01.148.013.285-.003.446-.02.201-.073.45-.197.805l-.056.159.131.107c.78.642 1.511 1.355 2.183 2.139a16.351 16.351 0 0 1 2.491 3.892 8.799 8.799 0 0 1-.385.86 18.208 18.208 0 0 0-2.431-3.614 20.031 20.031 0 0 0-2.228-2.219l-.221-.189-.145.253a20.297 20.297 0 0 1-1.363 2.049 61.42 61.42 0 0 0-1.31-1.089c.691-.95 1.268-1.819 1.666-2.615.332-.664.546-1.292.588-1.883Z"/><path fill="url(#g)" stroke="#0500FF" stroke-miterlimit="10" stroke-width=".483" d="M84.901 191.598c-9.619-18.17 18.638-60.654 18.638-60.654L70.812 93.715S42.554 136.2 52.174 154.37L84.9 191.598Z"/><path fill="#1B1B1C" stroke="#0500FF" stroke-width=".483" d="M94.862 145.296c-4.412 8.347-9.302 19.1-11.285 28.849-4.933-4.457-8.85-10.857-10.764-18.464-4.272-16.989 3.07-33.373 16.26-36.69a19.463 19.463 0 0 1 3.183-.517l10.982 12.491-.079.122a157.673 157.673 0 0 0-2.379 3.791 200.652 200.652 0 0 0-5.918 10.418Z"/><path fill="#1B1B1C" stroke="#0500FF" stroke-width=".483" d="M97.729 140.063c-3.134 5.517-7.01 12.941-10.046 20.678L58.97 128.08a2.877 2.877 0 0 1-.5-2.971c3.053-7.489 6.812-14.594 9.81-19.828a193.776 193.776 0 0 1 3.739-6.258 135.72 135.72 0 0 1 1.313-2.062l29.901 34.008-.009.014a133.348 133.348 0 0 0-1.499 2.355 193.93 193.93 0 0 0-3.997 6.725Z"/><path fill="url(#h)" stroke="#0500FF" stroke-width=".483" d="m121.748 46.328.315-.305 32.409 36.865a214.353 214.353 0 0 0-1.755 1.715 357.258 357.258 0 0 0-5.171 5.225 416.153 416.153 0 0 0-16.565 18.108c-12.533 14.565-26.674 33.246-33.191 49.807l-32.37-36.82c6.445-16.536 20.611-35.271 33.2-49.9a414.905 414.905 0 0 1 16.545-18.087 355.092 355.092 0 0 1 5.164-5.218c.615-.607 1.094-1.075 1.419-1.39Z"/><path fill="#1B1B1C" stroke="#0500FF" stroke-width=".483" d="M97.065 112.96c7.938-1.391 15.903 2.853 21.354 10.464-8.446 11.134-16.253 23.203-20.63 34.319l-18.425-20.96c.97-12.262 7.887-22.101 17.7-23.823Z"/><path fill="#1B1B1C" stroke="#0500FF" stroke-width=".483" d="M77.306 98.838c8.917-13.537 20.116-26.751 29.107-36.6a415.24 415.24 0 0 1 11.305-11.908 315.248 315.248 0 0 1 4.218-4.184l.128-.123 32.405 36.86a398.133 398.133 0 0 0-11.687 11.932c-6.942 7.397-15.97 17.546-24.36 28.605L77.306 98.838Z"/><path fill="#1B1B1C" stroke="#0500FF" stroke-linecap="round" stroke-linejoin="round" stroke-width=".483" d="M209.946 48.864s-48.063 30.396-79.979 69.768L97.239 81.403c31.916-39.37 79.979-69.767 79.979-69.767l32.728 37.228Z"/><path fill="#1B1B1C" stroke="#0500FF" stroke-linecap="round" stroke-linejoin="round" stroke-width=".483" d="M139.867 46.275C182.279 11.302 221.461.733 221.461.733l32.728 37.228s-39.182 10.569-81.594 45.543l-32.728-37.229Z"/><path fill="#1B1B1C" stroke="#0500FF" stroke-linecap="round" stroke-linejoin="round" stroke-width=".483" d="M242.949 15.87s-19.806-12.088-61.345 9.118l32.727 37.228c41.54-21.206 61.346-9.117 61.346-9.117l-32.728-37.228Z"/><path fill="url(#i)" stroke="#0500FF" stroke-miterlimit="10" stroke-width=".483" d="M75.371 203.36c-7.725-8.786-5.484-23.233-5.484-23.233L37.16 142.899s-2.238 14.446 5.484 23.233L75.37 203.36Z"/><path fill="#1B1B1C" stroke="#0500FF" stroke-linecap="round" stroke-linejoin="round" stroke-width=".483" d="M94.54 209.883c-9.537.567-15.485-2.336-19.17-6.527l-32.727-37.229c3.684 4.192 9.632 7.091 19.17 6.528l32.728 37.228Z"/><path fill="url(#j)" stroke="#0500FF" stroke-linecap="round" stroke-linejoin="round" stroke-width=".483" d="M141.587 100.842c24.174 3.634 46.716-13.018 50.349-37.192 3.633-24.173-13.018-46.715-37.192-50.348-24.174-3.634-46.716 13.018-50.349 37.192-3.633 24.173 13.019 46.715 37.192 50.348Z"/><path fill="#1B1B1C" stroke="#fff" stroke-width=".483" d="M162.211 77.822c-.017.112-.103.25-.337.396-.233.145-.577.279-1.036.393-.915.228-2.224.365-3.841.405-3.229.08-7.638-.233-12.456-.957-4.819-.724-9.124-1.722-12.187-2.747-1.534-.513-2.745-1.03-3.553-1.516-.404-.244-.695-.473-.874-.68-.181-.21-.223-.365-.206-.478.017-.113.103-.25.338-.396.232-.146.577-.28 1.035-.393.915-.228 2.224-.366 3.841-.405 3.23-.08 7.638.232 12.456.957 4.819.724 9.124 1.721 12.188 2.746 1.533.514 2.745 1.03 3.552 1.517.405.243.695.472.874.68.181.209.223.365.206.478Z"/><path fill="#0500FF" stroke="#0500FF" stroke-width=".483" d="M149.942 97.102c4.084.59 8.804.266 14.366-1.185-20.119 8.384-43.612-.042-53.645-19.794l-.215.11.215-.11c-10.092-19.861-2.909-43.96 15.961-55.185-7.516 6.29-11.167 12.76-11.869 19.875-.766 7.77 1.993 16.26 6.967 26.048l.838 1.654c4.633 9.144 8.962 17.688 15.28 23.067 3.358 2.857 7.278 4.824 12.102 5.52Z"/><path fill="#1B1B1C" stroke="#0500FF" stroke-linecap="round" stroke-linejoin="round" stroke-width=".483" d="M144.059 84.429c-20.187-3.034-36.319-8.885-37.949-13.542h-.004c5.062 15.367 18.393 27.388 35.482 29.956 17.057 2.564 33.297-4.969 42.661-18.118-3.105 3.901-20.148 4.716-40.19 1.704Z"/><path fill="#0500FF" stroke="#fff" stroke-linecap="round" stroke-linejoin="round" stroke-width=".483" d="M184.256 82.729s0-.004.005-.008c0 0-.001.004-.005.008Z"/><path fill="url(#k)" stroke="#0500FF" stroke-width=".483" d="M132.075 95.888a41.389 41.389 0 0 1-6.553-3.49 25.452 25.452 0 0 0 7.875 1.034c6.28-.157 14.937-2.654 23.633-12.569 1.121-.008 2.893.282 4.993.723 2.006.422 4.288.977 6.549 1.527l.527.128c2.428.59 4.806 1.162 6.748 1.539.972.188 1.839.329 2.552.398a8.46 8.46 0 0 0 1.013.047c-.327.365-.662.727-1.005 1.084-12.363 12.855-30.884 16.103-46.332 9.579Z"/><path fill="url(#l)" stroke="#0500FF" stroke-linecap="round" stroke-linejoin="round" stroke-width=".483" d="M143.105 90.495c21.387 3.214 39.747-.986 41.009-9.382 1.262-8.395-15.053-17.807-36.44-21.021-21.386-3.215-39.747.986-41.009 9.381-1.261 8.396 15.053 17.808 36.44 21.022Z"/><path fill="#0500FF" stroke="#0500FF" stroke-linecap="round" stroke-linejoin="round" stroke-width=".483" d="m132.261 52.26 6.929 1.596 2.603 20.382-9.532-21.978Z"/><path fill="#1B1B1C" stroke="#0500FF" stroke-linecap="round" stroke-linejoin="round" stroke-width=".483" d="m138.625 82.593-10.616-4.538-5.509-15.273 1.53-4.7 14.595 24.51Z"/><path fill="url(#m)" stroke="#0500FF" stroke-linecap="round" stroke-linejoin="round" stroke-width=".483" d="m138.623 82.592 3.338-.8-.166-7.554-9.532-21.977-8.235 5.82 14.595 24.51Z"/><path fill="#fff" stroke="#0500FF" stroke-linecap="round" stroke-linejoin="round" stroke-width=".483" d="m140.568 32.756 4.991 6.756 4.734 23.493-4.721 8.19-5.004-38.439Z"/><path fill="url(#n)" stroke="#0500FF" stroke-linecap="round" stroke-linejoin="round" stroke-width=".483" d="m140.571 32.757-3.018 2.317-1.085 15.339 5.33 23.828 3.776-3.044-5.003-38.44Z"/><path fill="#1B1B1C" stroke="#0500FF" stroke-linecap="round" stroke-linejoin="round" stroke-width=".483" d="m142.844 50.228-2.273-17.47-3.018 2.316-1.085 15.339 1.621 7.25 4.755-7.435Z"/><path fill="#fff" stroke="#0500FF" stroke-linecap="round" stroke-linejoin="round" stroke-width=".483" d="m156.852 50.142 2.674-2.42 6.626 10.237-3.229 6.445-6.83-1.026.759-13.236Z"/><path fill="#fff" stroke="#0500FF" stroke-linecap="round" stroke-linejoin="round" stroke-width=".483" d="m156.852 50.143-11.943 15.95.665 5.103 3.021 3.124 5.449-5.496 2.05-5.446.758-13.235Z"/><path fill="#0500FF" stroke="#0500FF" stroke-linecap="round" stroke-linejoin="round" stroke-width=".483" d="m144.911 66.092.311 2.384 9.574-1.641 1.3-3.457.404-7.075-4.888.84-6.701 8.949Z"/><path fill="url(#o)" stroke="#0500FF" stroke-linecap="round" stroke-linejoin="round" stroke-width=".483" d="m162.92 64.404-3.335 5.097-5.544-.678 2.049-5.446 6.83 1.027Z"/><path fill="#1B1B1C" stroke="#0500FF" stroke-linecap="round" stroke-linejoin="round" stroke-width=".483" d="m154.041 68.822-5.45 5.496-1.682 11.197 3.064.46 4.497-5.999-.429-11.154Z"/><path fill="#fff" stroke="#0500FF" stroke-linecap="round" stroke-linejoin="round" stroke-width=".483" d="m165.734 68.577-11.692.247.429 11.154 12.502 1.879 1.917-3.872-3.156-9.408Z"/><path fill="url(#p)" stroke="#0500FF" stroke-linecap="round" stroke-linejoin="round" stroke-width=".483" d="m166.977 81.856-3.237 3.774s-14.413.249-13.762.346l4.497-5.999 12.502 1.88Z"/><path fill="#0500FF" stroke="#0500FF" stroke-linecap="round" stroke-linejoin="round" stroke-width=".483" d="m145.573 71.195-3.777 3.044.166 7.553 4.949 3.723 1.683-11.196-3.021-3.124Z"/><path fill="#fff" stroke="#0500FF" stroke-linecap="round" stroke-linejoin="round" stroke-width=".483" d="m145.573 71.195-3.777 3.044 6.358 3.006.44-2.926-3.021-3.124Z"/><path fill="url(#q)" stroke="#0500FF" stroke-linecap="round" stroke-linejoin="round" stroke-width=".483" d="m151.921 43.79-.519-2.476 4.528-5.07 5.348 5.872-1.621 3.385-7.736-1.711Z"/><path fill="#fff" stroke="#0500FF" stroke-linecap="round" stroke-linejoin="round" stroke-width=".483" d="m151.401 41.314-2.499-14.34 4.525-5.07 2.502 14.34-4.528 5.07Z"/><path fill="#0500FF" stroke="#0500FF" stroke-miterlimit="10" stroke-width=".483" d="m154.53 28.23-3.846 8.971-1.782-10.227 4.525-5.07 1.103 6.326Z"/><path fill="#fff" stroke="#0500FF" stroke-linecap="round" stroke-linejoin="round" stroke-width=".483" d="m153.424 21.904 5.606 5.362 2.244 14.85-5.348-5.871-2.502-14.341Z"/><path fill="#fff" stroke="#fff" stroke-linecap="round" stroke-linejoin="round" stroke-width=".483" d="M184.243 82.725s.001-.004.005-.008c0 0-.001.004-.005.008Z"/><path fill="#FFAEFE" stroke="#fff" stroke-linecap="round" stroke-linejoin="round" stroke-width=".483" d="M184.243 82.725s.001-.004.005-.008c0 0-.001.004-.005.008Z"/><path stroke="#0500FF" stroke-miterlimit="10" stroke-width=".483" d="m215.672 165.784.687-2.048"/><path fill="#1B1B1C" stroke="#0500FF" stroke-linecap="round" stroke-linejoin="round" stroke-width=".483" d="M62.857 217.266s19.801 12.093 61.341-9.109L91.47 170.929c-41.54 21.202-61.341 9.109-61.341 9.109l32.728 37.228Z"/><path fill="#1B1B1C" stroke="#0500FF" stroke-width=".483" d="m46.595 189.521-2.042-.246-1.898-2.156a.593.593 0 0 1-.119-.182v-.002l.002-.001a.628.628 0 0 1 .217-.005l1.21.146h.001c.217.026.489.12.75.258.263.138.494.309.639.474l1.34 1.524a.596.596 0 0 1 .118.182v.002l-.002.001a.628.628 0 0 1-.216.005Zm-3.091 1.678-.072-.083h-.004l-1.268-1.442a.596.596 0 0 1-.12-.184h.003a.58.58 0 0 1 .216-.005l2.047.246 1.898 2.155v.001a.584.584 0 0 1 .118.181l.001.002-.002.001a.58.58 0 0 1-.217.005l-1.21-.146h-.001a2.282 2.282 0 0 1-.751-.258 2.314 2.314 0 0 1-.638-.473Zm24.106 24.306v-.001l-1.541-1.749 1.51.182h.001c.217.025.489.119.751.257s.493.309.638.474l1.34 1.525a.591.591 0 0 1 .119.183l-.002.001a.58.58 0 0 1-.217.005l-1.21-.146h-.001a2.302 2.302 0 0 1-.751-.257 2.315 2.315 0 0 1-.638-.474Zm-5.635-3.298-1.34-1.525a.584.584 0 0 1-.12-.182v-.001l.003-.001a.58.58 0 0 1 .216-.005l1.21.146h.002c.217.026.488.119.75.257.263.138.494.31.638.474l1.54 1.75-1.51-.182a2.301 2.301 0 0 1-.752-.257 2.316 2.316 0 0 1-.637-.474Z"/><path fill="url(#r)" stroke="#0500FF" stroke-width=".483" d="M77.568 197.877c1.59 4.559 2.157 8.977 1.796 12.432-.362 3.475-1.647 5.881-3.662 6.584-2.016.703-4.519-.382-6.964-2.878-2.43-2.481-4.735-6.293-6.325-10.851-1.59-4.558-2.156-8.977-1.796-12.431.362-3.475 1.647-5.882 3.663-6.585 2.015-.703 4.518.382 6.963 2.878 2.43 2.481 4.735 6.293 6.325 10.851Z"/><path fill="#1B1B1C" stroke="#0500FF" stroke-linecap="round" stroke-linejoin="round" stroke-width=".483" d="M84.34 232.412s39.177-10.564 81.589-45.533l-32.728-37.229c-42.412 34.974-81.59 45.534-81.59 45.534l32.728 37.228Z"/><path stroke="#0500FF" stroke-linecap="round" stroke-linejoin="round" stroke-width=".483" d="M95.578 175.657c-25.402 14.524-43.967 19.531-43.967 19.531l22.104 25.144"/><path fill="url(#s)" stroke="#0500FF" stroke-width=".483" d="M123.13 195.081c0 5.858-1.489 11.15-3.885 14.97-2.397 3.823-5.679 6.141-9.263 6.141-3.585 0-6.866-2.318-9.264-6.141-2.395-3.82-3.885-9.112-3.885-14.97 0-5.858 1.49-11.15 3.885-14.969 2.398-3.824 5.679-6.141 9.264-6.141 3.584 0 6.866 2.317 9.263 6.141 2.396 3.819 3.885 9.111 3.885 14.969Z"/><path fill="#1B1B1C" stroke="#0500FF" stroke-width=".483" d="m64.033 201.986-.072-.082h-.005l-1.267-1.442c-.13-.148-.147-.277-.124-.364.023-.087.102-.19.287-.254l2.244-.776 2.227 2.533-2.056.711a1.167 1.167 0 0 1-.661.005 1.163 1.163 0 0 1-.573-.331Zm1.215-3.481-1.85-2.101v-.001c-.13-.147-.147-.276-.124-.363.023-.087.102-.19.287-.254l1.516-.524c.189-.065.427-.067.662-.005.234.062.441.181.573.331l1.34 1.525-2.404 1.392Zm0 0 2.24-.775c.186-.064.265-.167.288-.254.023-.086.005-.215-.124-.363l-2.404 1.392Zm17.256 24.49-.073-.083h-.004l-1.268-1.442c-.13-.148-.147-.277-.124-.363.023-.087.102-.19.288-.254l1.516-.524c.189-.065.427-.067.662-.005.234.062.44.181.572.331l1.721 1.954-2.056.712a1.167 1.167 0 0 1-.662.005 1.17 1.17 0 0 1-.572-.331Zm5.851 1.79-1.72-1.954 2.056-.711c.188-.065.427-.067.662-.005.234.062.44.181.572.331l1.34 1.524c.13.148.147.277.124.364-.023.086-.102.19-.288.254l-1.516.524a1.176 1.176 0 0 1-.661.005 1.228 1.228 0 0 1-.522-.278l-.047-.054Z"/><path fill="url(#t)" stroke="#0500FF" stroke-miterlimit="10" stroke-width=".483" d="M128.574 221.509s48.063-30.392 79.984-69.763l-32.728-37.228c-31.92 39.371-79.983 69.762-79.983 69.762l32.727 37.229Z"/><path fill="url(#u)" stroke="#0500FF" stroke-width=".483" d="M166.646 171.642c0 6.561-1.468 12.49-3.83 16.769-2.367 4.289-5.597 6.87-9.108 6.87s-6.742-2.581-9.108-6.87c-2.362-4.279-3.83-10.208-3.83-16.769 0-6.562 1.468-12.491 3.83-16.77 2.366-4.289 5.597-6.87 9.108-6.87s6.741 2.581 9.108 6.87c2.362 4.279 3.83 10.208 3.83 16.77Z"/><path fill="#1B1B1C" stroke="#0500FF" stroke-width=".483" d="m208.242 151.752-29.398-33.438c-10.663 13.115-24.46 26.519-36.949 37.278m66.347-3.84-66.505 3.657m66.505-3.657c-11.857 14.593-25.925 27.95-38.923 38.972m-27.424-35.132-.158-.183m.158.183-.158-.183m.158.183a2.574 2.574 0 0 0-.255 3.647h-.001l-.181.159m.279-3.989a2.816 2.816 0 0 0-.279 3.989m0 0 .182-.159m-.182.159.182-.159m0 0 27.679 31.485m0 0-.181.153.156.184.182-.159-.157-.178Zm-57.242-6.663.001-.001c.305-.198.357-.572.114-.849l-.115.85Zm0 0-2.47 1.616-1.82-2.067c-.243-.278-.191-.652.114-.85l1.868-1.219c.33-.215.824-.15 1.083.145v.001l1.339 1.524-.114.85Zm-3.801 6.239-1.34-1.524c-.243-.278-.192-.652.113-.85h.001l2.47-1.616 1.82 2.067c.243.277.191.651-.113.849l-.001.001-1.868 1.219a.868.868 0 0 1-1.082-.146Zm18.471 21.008-.072-.082h-.005l-1.267-1.442c-.244-.277-.192-.651.113-.849v-.001l1.868-1.219a.87.87 0 0 1 1.083.146l1.774 2.015-2.411 1.578h-.001a.868.868 0 0 1-1.082-.146Zm6.001.683-1.774-2.016 2.411-1.577.001-.001a.87.87 0 0 1 1.082.146l1.34 1.525c.243.277.191.651-.113.849l-.001.001-1.868 1.219a.874.874 0 0 1-1.034-.096l-.044-.05Z"/><path fill="url(#v)" stroke="#0500FF" stroke-miterlimit="10" stroke-width=".483" d="M240.66 112.181c-12.879 33.222-56.944 75.299-56.944 75.299l-32.728-37.229s44.065-42.076 56.944-75.298l32.728 37.228Z"/><path fill="url(#w)" stroke="#0500FF" stroke-width=".483" d="M212.057 131.33c.725 6.566.042 12.645-1.638 17.165-1.684 4.534-4.34 7.425-7.515 7.776s-6.397-1.892-9.031-5.949c-2.624-4.045-4.617-9.829-5.342-16.395-.725-6.565-.042-12.645 1.637-17.164 1.685-4.535 4.34-7.426 7.516-7.776 3.175-.351 6.397 1.891 9.03 5.949 2.625 4.044 4.618 9.829 5.343 16.394Z"/><path fill="#1B1B1C" stroke="#0500FF" stroke-width=".483" d="M165.495 148.263a.988.988 0 0 0 .056-1.348m-.056 1.348-2.568-2.924a.88.88 0 0 1 1.284.051l1.34 1.525m-.056 1.348-2.07 2.003 2.07-2.003Zm.056-1.348-.181.159m.181-.159-.181.159m0 0-1.34-1.524a.638.638 0 0 0-.935-.037l-1.576 1.524a.748.748 0 0 0-.042 1.016l1.789 2.032 2.061-1.995h.001a.75.75 0 0 0 .042-1.016Zm-2.9 8.249-.072-.082h-.004l-1.268-1.442a.75.75 0 0 1 .042-1.016l2.065-1.997 1.79 2.034h.001a.75.75 0 0 1-.043 1.016l-1.576 1.524a.638.638 0 0 1-.935-.037Zm18.47 21.009-.072-.082h-.004l-1.268-1.442v-.001a.747.747 0 0 1 .042-1.015l1.576-1.524v-.001a.638.638 0 0 1 .935.038l1.806 2.052-2.08 2.012a.638.638 0 0 1-.935-.037Zm5.535.156-.044-.049-1.806-2.051 2.081-2.013a.639.639 0 0 1 .935.037l1.339 1.525-2.505 2.551Zm0 0c.25.235.633.234.887-.011l1.576-1.525a.747.747 0 0 0 .043-1.015l-2.506 2.551Zm24.256-97.981 29.65 33.724c-3.745 9.599-10.094 19.946-17.228 29.804l-28.181-32.056a2.862 2.862 0 0 1-.182-3.545c6.576-9.26 12.39-18.906 15.941-27.927Z"/><path fill="url(#x)" stroke="#0500FF" stroke-miterlimit="10" stroke-width=".483" d="M253.632 78.78c9.615 18.173-18.65 60.658-18.65 60.658l-32.728-37.229s28.266-42.484 18.651-60.658l32.727 37.228Z"/><path fill="url(#y)" stroke="#0500FF" stroke-width=".483" d="M241.908 84.304c2.773 5.618 4.588 11.038 5.285 15.254.349 2.109.415 3.903.19 5.265-.226 1.369-.737 2.245-1.488 2.616s-1.757.242-2.981-.41c-1.218-.65-2.601-1.793-4.064-3.353-2.922-3.117-6.12-7.855-8.894-13.473-2.773-5.619-4.588-11.038-5.285-15.254-.349-2.11-.415-3.904-.19-5.265.227-1.369.737-2.245 1.488-2.616.751-.37 1.757-.243 2.981.41 1.218.65 2.602 1.793 4.064 3.353 2.923 3.117 6.121 7.854 8.894 13.473Z"/><path fill="#1B1B1C" stroke="#0500FF" stroke-width=".483" d="m225.711 47.386 27.719 31.527c2.153 4.098 2.372 9.472 1.395 15.358L227.598 63.3l-1.887-15.915Zm0 0c1.206 4.144.989 8.008.83 10.829-.018.335-.036.655-.051.959-.046.964-.067 1.645.07 2.263.134.605.424 1.165 1.038 1.865l-1.887-15.916Zm-13.31 53.204-1.732-1.967a1.086 1.086 0 0 1-.24-.598 1.088 1.088 0 0 1 .114-.635l.898-1.58c.096-.17.217-.237.32-.248.102-.01.234.03.362.176l1.34 1.525c.13.148.217.364.241.598a1.09 1.09 0 0 1-.115.635l-1.188 2.094Zm1.046 5.61c-.096.17-.217.237-.319.248-.091.009-.204-.021-.317-.129l-.046-.052-1.263-1.434a1.261 1.261 0 0 1-.28-.692c-.028-.27.019-.535.133-.733v-.001l1.13-1.99 1.734 1.97c.13.148.217.364.241.598.023.234-.018.463-.115.635l-.898 1.58Zm22.853 20.733c-.096.169-.217.237-.319.247-.09.01-.204-.02-.317-.128l-.046-.052-1.845-2.095 1.212-2.135c.113-.196.258-.28.387-.293.129-.013.288.039.438.208v.001l1.262 1.434c.13.148.217.364.241.598a1.09 1.09 0 0 1-.115.635l-.898 1.58Zm-4.323.172v-.001l1.212-2.134-1.763-2.005c-.15-.17-.309-.222-.438-.208-.128.013-.274.096-.387.292v.001l-.837 1.472a1.097 1.097 0 0 0-.115.635c.024.234.111.45.241.598l1.262 1.434.825-.084Zm0 0c-.113.196-.258.279-.387.292-.129.014-.288-.038-.438-.208l.825-.084Z"/><path fill="#1B1B1C" stroke="#0500FF" stroke-linecap="round" stroke-linejoin="round" stroke-width=".483" d="M263.171 67.009c-3.684-4.192-9.636-7.095-19.179-6.528l-32.727-37.228c9.542-.567 15.494 2.336 19.179 6.527 7.721 8.782 40.449 46.01 32.727 37.229Z"/><path fill="#1B1B1C" d="m229.431 43.918-18.161-20.66c9.542-.568 15.494 2.335 19.178 6.527"/><path stroke="#0500FF" stroke-linecap="round" stroke-linejoin="round" stroke-width=".483" d="m229.431 43.918-18.161-20.66c9.542-.568 15.494 2.335 19.178 6.527"/><path fill="url(#z)" stroke="#0500FF" stroke-miterlimit="10" stroke-width=".483" d="M263.172 67.008c7.721 8.782 5.488 23.225 5.488 23.225l-32.728-37.229s2.233-14.438-5.488-23.224l32.728 37.228Z"/><path fill="#1B1B1C" stroke="#0500FF" stroke-width=".483" d="m244.748 58.26-.072-.082h-.005l-1.384-1.575v-.001a1.94 1.94 0 0 1-.317-.55 2.012 2.012 0 0 1-.151-.622l-.027-.753 1.627 1.85h.001c.113.127.228.326.317.55.089.224.143.449.151.622l.017.497v.002a.686.686 0 0 1-.014.193.717.717 0 0 1-.143-.13Zm.127.174h.001-.001Zm.056-.023h.001-.001Zm-2.698-5.821.027.747-1.623-1.844-.001-.001a1.94 1.94 0 0 1-.317-.55 2.006 2.006 0 0 1-.15-.622l-.017-.497v-.002a.696.696 0 0 1 .013-.193.69.69 0 0 1 .144.13l1.456 1.658.001.001c.112.127.227.326.316.55.089.224.144.45.151.622Zm-2.052-3.004v-.001Zm-.056.022h-.001.001Zm21.988 28.407-.072-.082h-.004l-1.384-1.576a2.503 2.503 0 0 1-.402-.7 2.469 2.469 0 0 1-.186-.78v-.001l-.018-.498.001-.073a.648.648 0 0 1 .049.051l2.018 2.294.048 1.342a.845.845 0 0 1-.001.074.9.9 0 0 1-.049-.051Zm2.541.785-.041-.047-2.017-2.293-.044-1.168v-.001a.687.687 0 0 1 .014-.194.72.72 0 0 1 .143.131l1.34 1.525c.146.166.291.42.402.699a2.5 2.5 0 0 1 .187.782l.017.497a.738.738 0 0 1-.001.068Zm-2.073-3.745h.001-.001Zm-.056.023h-.001.001Z"/><path fill="url(#A)" stroke="#0500FF" stroke-linecap="round" stroke-linejoin="round" stroke-width=".483" d="M242.718 219.06c21.765-7.108 33.647-30.514 26.54-52.278-7.108-21.765-30.513-33.647-52.278-26.54-21.765 7.108-33.647 30.514-26.539 52.278 7.107 21.765 30.513 33.647 52.277 26.54Z"/><path fill="url(#B)" stroke="#0500FF" stroke-linecap="round" stroke-linejoin="round" stroke-width=".483" d="M237.897 204.279c19.576-6.393 34.303-15.073 32.894-19.388-1.409-4.315-18.421-2.631-37.997 3.762-19.575 6.392-34.302 15.073-32.893 19.388 1.409 4.315 18.421 2.631 37.996-3.762Z"/><path fill="url(#C)" stroke="#0500FF" stroke-width=".483" d="M257.717 188.712c.06.185.024.435-.18.771-.204.334-.554.718-1.051 1.145-.993.851-2.528 1.832-4.496 2.88-3.934 2.095-9.559 4.434-15.942 6.518-6.383 2.085-12.304 3.516-16.716 4.147-2.207.316-4.025.429-5.329.328-.653-.051-1.163-.154-1.524-.304-.364-.15-.54-.331-.601-.516-.06-.185-.024-.435.18-.771.204-.335.554-.719 1.051-1.145.993-.852 2.528-1.833 4.496-2.881 3.933-2.094 9.559-4.433 15.942-6.518 6.383-2.084 12.304-3.516 16.716-4.147 2.207-.315 4.025-.429 5.329-.328.653.051 1.163.155 1.524.304.363.151.54.332.601.517Z"/><path fill="#EBE9E9" stroke="#0500FF" stroke-linecap="round" stroke-linejoin="round" stroke-width=".483" d="m195.059 170.719 15.718 16c11.48 11.685 22.323 16.566 26.988 11.602l19.747-21.996c-4.666 4.96-15.51.079-26.988-11.602l-15.719-16-19.746 21.996Z"/><path fill="#1B1B1C" stroke="#0500FF" stroke-linecap="round" stroke-linejoin="round" stroke-width=".483" d="M237.119 184.925s5.075 8.224.645 13.397l19.746-21.997c4.43-5.172-.645-13.397-.645-13.397l-19.746 21.997Z"/><path fill="#0500FF" stroke="#0500FF" stroke-width=".483" d="m213.774 160.74-.601.668-.765-.778.6-.668.766.778Zm-1.845 2.057-.601.668-.767-.782.601-.668.767.782Zm-4.613 5.135-.601.668-.765-.778.6-.668.766.778Zm1.844-2.054-.6.668-.763-.779.598-.667.765.778Zm2.583-5.234-.597.667-.766-.778.601-.668.762.779Zm-3.687 4.111-.598.666-.765-.778.597-.666.766.778Zm-2.766 3.081-.598.666-.765-.778.601-.667.762.779Zm11.479-2.077-.597.669-3.581-3.646.597-.669 3.581 3.646Zm2.771-3.083-.6.668-5.787-5.894.597-.666 5.79 5.892Zm.919-1.025-.6.668-5.791-5.893.6-.671 5.791 5.896Zm-11.99 13.357-.598.666-5.791-5.892.601-.671 5.788 5.897Zm-.921 1.026-.601.668-5.79-5.892.6-.668 5.791 5.892Zm7.378-8.218-.597.666-3.582-3.645.598-.666 3.581 3.645Zm-.92 1.026-.601.667-3.581-3.645.6-.668 3.582 3.646Zm-1.848 2.055-.598.666-3.581-3.646.597-.666 3.582 3.646Zm-1.841 2.056-.597.666-3.582-3.646.597-.669 3.582 3.649Z"/><path stroke="#0500FF" stroke-width=".483" d="m227.302 161.441-19.746 21.996"/><path stroke="#0500FF" stroke-linecap="round" stroke-linejoin="round" stroke-width=".483" d="m227.303 161.441-.906 1.009m-1.516 1.69-15.66 17.446m-.759.842-.906 1.01"/><path fill="url(#D)" stroke="#0500FF" stroke-width=".483" d="m218.119 180.777-.105-.107h-.002c-.455-.486-.713-.925-.825-1.274-.122-.383-.059-.613.037-.719.09-.1.287-.176.641-.066.351.109.809.391 1.328.92l1.919 1.954.102.104.139-.042 5.492-1.651.69.703-4.271 2.66-.255.16.211.214 1.368 1.392.102.104.139-.042 2.322-.696.633.644-2.153 1.34-.029.019-.023.025-.756.842-.022.025-.015.03-1.147 2.324-.617-.627.553-2.524.028-.128-.091-.093-1.368-1.392-.238-.242-.151.304-2.291 4.639-.672-.686 1.309-5.939.028-.128-.092-.093-1.918-1.954Z"/><path fill="#0500FF" stroke="#0500FF" stroke-width=".483" d="M196.602 158.54c-7.684 18.305-1.432 36.998 14.449 48.722 16.603 12.257 38.172 12.141 50.474-4.524 5.203-7.048 6.213-17.541 4.293-27.99-1.775-9.656-6.059-19.321-11.917-26.279 16.927 13.044 20.382 37.295 7.632 54.571-12.915 17.499-37.573 21.212-55.073 8.297-16.753-12.365-20.87-35.492-9.858-52.797Z"/><path fill="#0500FF" stroke="#0500FF" stroke-linecap="round" stroke-linejoin="round" stroke-width=".483" d="M237.898 204.279c-18.175 5.935-34.139 7.81-37.455 4.596l-.004.001c10.687 10.741 26.895 15.208 42.285 10.182 15.354-5.014 25.792-18.141 28.109-33.08-.962 4.57-14.888 12.408-32.935 18.301Zm32.932-18.3-.002-.007.002.007Z"/><path fill="url(#E)" d="M265.871 191.443c-.756 4.201-2.23 8.025-4.539 11.152-11.215 15.191-30.207 16.542-46.038 7.187-4.272.612-7.886.794-10.55.526.511.416 1.036.824 1.574 1.223 17.606 12.994 42.415 9.259 55.409-8.348a39.537 39.537 0 0 0 6.488-13.602 26.679 26.679 0 0 1-2.347 1.863l.003-.001Z"/><path fill="#EBE9E9" stroke="#0500FF" stroke-linecap="round" stroke-linejoin="round" stroke-width=".483" d="m270.828 185.979-.002-.007.002.007Z"/><path fill="#0500FF" stroke="#0500FF" stroke-linecap="round" stroke-linejoin="round" stroke-width=".483" d="m270.828 185.979-.002-.007.002.007Z"/><defs><linearGradient id="a" x1="38.164" x2="73.386" y1="83.125" y2="186.01" gradientUnits="userSpaceOnUse"><stop offset=".046" stop-color="#2ECCFF"/><stop offset="1" stop-color="#0500FF"/></linearGradient><linearGradient id="b" x1="56.723" x2="30.921" y1="89.488" y2="125.74" gradientUnits="userSpaceOnUse"><stop offset=".06" stop-color="#FFF8A3"/><stop offset=".777" stop-color="#FFAEFE"/></linearGradient><linearGradient id="d" x1="260.172" x2="317.01" y1="118.77" y2="135.404" gradientUnits="userSpaceOnUse"><stop offset=".046" stop-color="#2ECCFF"/><stop offset="1" stop-color="#0500FF"/></linearGradient><linearGradient id="e" x1="268.831" x2="276.859" y1="112.51" y2="135.374" gradientUnits="userSpaceOnUse"><stop offset=".06" stop-color="#FFF465"/><stop offset=".777" stop-color="#48FF91"/></linearGradient><linearGradient id="g" x1="76.858" x2="76.858" y1="93.715" y2="191.598" gradientUnits="userSpaceOnUse"><stop offset=".046" stop-color="#2ECCFF"/><stop offset=".277" stop-color="#2D9FFF"/><stop offset="1" stop-color="#0029FF"/></linearGradient><linearGradient id="h" x1="109.974" x2="109.974" y1="45.674" y2="158.2" gradientUnits="userSpaceOnUse"><stop offset=".046" stop-color="#2ECCFF"/><stop offset=".277" stop-color="#2D9FFF"/><stop offset="1" stop-color="#0029FF"/></linearGradient><linearGradient id="i" x1="56.115" x2="56.115" y1="142.899" y2="203.36" gradientUnits="userSpaceOnUse"><stop offset=".046" stop-color="#2ECCFF"/><stop offset=".277" stop-color="#2D9FFF"/><stop offset="1" stop-color="#0029FF"/></linearGradient><linearGradient id="j" x1="154.744" x2="141.587" y1="13.302" y2="100.842" gradientUnits="userSpaceOnUse"><stop offset=".046" stop-color="#2ECCFF"/><stop offset=".277" stop-color="#2D9FFF"/><stop offset="1" stop-color="#0029FF"/></linearGradient><linearGradient id="k" x1="153.314" x2="150.271" y1="79.934" y2="100.175" gradientUnits="userSpaceOnUse"><stop offset=".06" stop-color="#FFF465"/><stop offset=".777" stop-color="#48FF91"/></linearGradient><linearGradient id="l" x1="147.674" x2="143.105" y1="60.092" y2="90.495" gradientUnits="userSpaceOnUse"><stop offset=".06" stop-color="#FFF8A3"/><stop offset=".777" stop-color="#FFAEFE"/></linearGradient><linearGradient id="m" x1="135.576" x2="131.259" y1="52.758" y2="81.485" gradientUnits="userSpaceOnUse"><stop offset=".06" stop-color="#FFF8A3"/><stop offset=".777" stop-color="#FFAEFE"/></linearGradient><linearGradient id="n" x1="144.537" x2="138.467" y1="33.353" y2="73.74" gradientUnits="userSpaceOnUse"><stop offset=".06" stop-color="#FFF8A3"/><stop offset=".777" stop-color="#FFAEFE"/></linearGradient><linearGradient id="o" x1="158.903" x2="158.058" y1="63.8" y2="69.426" gradientUnits="userSpaceOnUse"><stop offset=".06" stop-color="#FFF8A3"/><stop offset=".777" stop-color="#FFAEFE"/></linearGradient><linearGradient id="p" x1="158.957" x2="157.976" y1="80.651" y2="87.178" gradientUnits="userSpaceOnUse"><stop offset=".06" stop-color="#FFF8A3"/><stop offset=".777" stop-color="#FFAEFE"/></linearGradient><linearGradient id="q" x1="157.135" x2="155.857" y1="36.426" y2="44.93" gradientUnits="userSpaceOnUse"><stop offset=".06" stop-color="#FFF8A3"/><stop offset=".777" stop-color="#FFAEFE"/></linearGradient><linearGradient id="r" x1="64.2" x2="75.781" y1="183.92" y2="217.121" gradientUnits="userSpaceOnUse"><stop offset=".06" stop-color="#FFF465"/><stop offset=".777" stop-color="#48FF91"/></linearGradient><linearGradient id="s" x1="109.982" x2="109.982" y1="173.729" y2="216.433" gradientUnits="userSpaceOnUse"><stop offset=".06" stop-color="#FFF8A3"/><stop offset=".777" stop-color="#FFAEFE"/></linearGradient><linearGradient id="t" x1="152.202" x2="152.202" y1="114.518" y2="221.509" gradientUnits="userSpaceOnUse"><stop offset=".046" stop-color="#2ECCFF"/><stop offset=".277" stop-color="#2D9FFF"/><stop offset="1" stop-color="#0029FF"/></linearGradient><linearGradient id="u" x1="153.708" x2="153.708" y1="147.76" y2="195.523" gradientUnits="userSpaceOnUse"><stop offset=".06" stop-color="#FFF465"/><stop offset=".777" stop-color="#48FF91"/></linearGradient><linearGradient id="v" x1="195.824" x2="195.824" y1="74.953" y2="187.48" gradientUnits="userSpaceOnUse"><stop offset=".046" stop-color="#2ECCFF"/><stop offset=".277" stop-color="#2D9FFF"/><stop offset="1" stop-color="#0029FF"/></linearGradient><linearGradient id="w" x1="197.657" x2="202.93" y1="108.747" y2="156.511" gradientUnits="userSpaceOnUse"><stop offset=".06" stop-color="#FFF465"/><stop offset=".777" stop-color="#48FF91"/></linearGradient><linearGradient id="x" x1="228.941" x2="228.941" y1="41.551" y2="139.438" gradientUnits="userSpaceOnUse"><stop offset=".046" stop-color="#2ECCFF"/><stop offset=".277" stop-color="#2D9FFF"/><stop offset="1" stop-color="#0029FF"/></linearGradient><linearGradient id="y" x1="225.862" x2="246.002" y1="66.851" y2="107.655" gradientUnits="userSpaceOnUse"><stop offset=".06" stop-color="#FFF465"/><stop offset=".777" stop-color="#48FF91"/></linearGradient><linearGradient id="z" x1="249.558" x2="249.558" y1="29.452" y2="90.233" gradientUnits="userSpaceOnUse"><stop offset=".046" stop-color="#2ECCFF"/><stop offset=".277" stop-color="#2D9FFF"/><stop offset="1" stop-color="#0029FF"/></linearGradient><linearGradient id="A" x1="216.98" x2="326.229" y1="140.242" y2="221.284" gradientUnits="userSpaceOnUse"><stop offset=".046" stop-color="#2ECCFF"/><stop offset="1" stop-color="#0500FF"/></linearGradient><linearGradient id="B" x1="232.794" x2="237.897" y1="188.653" y2="204.279" gradientUnits="userSpaceOnUse"><stop offset=".06" stop-color="#FFF8A3"/><stop offset=".777" stop-color="#FFAEFE"/></linearGradient><linearGradient id="C" x1="233.472" x2="236.123" y1="192.137" y2="200.256" gradientUnits="userSpaceOnUse"><stop offset=".06" stop-color="#FFF465"/><stop offset=".777" stop-color="#48FF91"/></linearGradient><linearGradient id="D" x1="220.748" x2="224.817" y1="177.227" y2="189.689" gradientUnits="userSpaceOnUse"><stop offset=".06" stop-color="#FFF465"/><stop offset=".777" stop-color="#48FF91"/></linearGradient><linearGradient id="E" x1="236.479" x2="242.153" y1="199.945" y2="217.319" gradientUnits="userSpaceOnUse"><stop offset=".06" stop-color="#FFF465"/><stop offset=".777" stop-color="#48FF91"/></linearGradient></defs></svg>