<svg xmlns="http://www.w3.org/2000/svg" width="237" height="246" fill="none" viewBox="0 0 237 246"><path fill="#1B1B1C" stroke="#0500FF" stroke-linecap="round" stroke-linejoin="round" stroke-width=".469" d="M144.408 237.702c-1.913 3.633-6.688 5.634-10.621 4.448L5.553 203.512c-3.927-1.185-5.577-5.122-3.67-8.754L90.44 26.546c1.912-3.633 6.688-5.634 10.62-4.448l128.234 38.638c3.927 1.185 5.577 5.122 3.67 8.754l-88.556 168.212Z"/><path fill="url(#a)" stroke="#0500FF" stroke-miterlimit="10" stroke-width=".469" d="M163.541 201.366H2.313c.763.97 1.855 1.734 3.243 2.151l128.234 38.638c3.927 1.186 8.708-.82 10.62-4.448l19.131-36.336v-.005Z"/><path stroke="#0500FF" stroke-linecap="round" stroke-linejoin="round" stroke-width=".469" d="m160.943 206.296-16.361-4.931 46.975-89.226 16.362 4.926"/><path stroke="#0500FF" stroke-linecap="round" stroke-linejoin="round" stroke-width=".469" d="m156.941 213.898-41.59-12.532 56.681-107.664 41.595 12.533"/><path stroke="#0500FF" stroke-linecap="round" stroke-linejoin="round" stroke-width=".469" d="m152.936 221.5-66.824-20.134L152.5 75.265l66.828 20.134"/><path stroke="#0500FF" stroke-linecap="round" stroke-linejoin="round" stroke-width=".469" d="m148.939 229.102-92.062-27.736 76.099-144.539 92.057 27.736"/><path stroke="#0500FF" stroke-linecap="round" stroke-linejoin="round" stroke-width=".469" d="m144.934 236.704-117.29-35.338 85.8-162.977 117.29 35.338m-26.467 50.354L96.205 22.107M22.156 156.256l151.499 25.885m10.204-19.375L46.097 110.785m163.922 2.287-67.733-78.545M219.14 95.74l-29.859-47.055M70.032 65.32l124.044 78.08m-41.526 78.818-55.955 8.732m-46.58-14.038 109.135-7.185"/><path fill="#2D9FFF" d="m187.117 86.721.888-.39-.391-.888-.888.39.391.888ZM61.252 148.993l1.145-.503-.503-1.146-1.146.504.504 1.145Zm43.224-44.762.54.312.311-.54-.54-.312-.311.54Zm25.355 4.524.394.228.227-.394-.394-.227-.227.393Zm27.301 26.084.393.228.228-.394-.394-.227-.227.393Zm-36.559-33.043.394.227.227-.393-.394-.228-.227.394Zm20.072 34.657.394.227.227-.393-.393-.228-.228.394Zm8.197 3.283.393.227.228-.394-.394-.227-.227.394ZM115.68 84.192l.54.311.311-.54-.539-.311-.312.54Zm9.444-4.402.394.227.227-.394-.394-.227-.227.394Zm-21.15-12.408.394.227.227-.393-.393-.228-.228.394ZM122.5 94.873l.394.227.227-.393-.394-.228-.227.394ZM93.78 78.48l.394.227.227-.394-.394-.227-.227.394Zm-3.67 100.183.394.227.227-.394-.393-.227-.228.394Zm70.579-24.356.394.228.227-.394-.393-.227-.228.393Zm-52.912 27.239.394.227.227-.394-.394-.227-.227.394Zm78.326-101.375.394.227.227-.393-.393-.228-.228.394Zm-3.143 42.318.394.228.227-.394-.394-.227-.227.393Zm-69.027 3.495.786.236.235-.786-.785-.235-.236.785Zm-19.186 64.743.785.235.236-.785-.786-.236-.235.786Zm81.096-36.78.786.236.236-.786-.786-.236-.236.786Zm-50.615-56.111.786.236.235-.786-.785-.236-.236.786Zm33.691 40.251.785.236.236-.786-.786-.235-.235.785Zm-28.08-26.101.786.236.236-.785-.786-.236-.236.785Zm-1.424 30.574.785.236.236-.785-.786-.236-.235.785Zm-73.524-4.109.786.236.235-.786-.785-.236-.236.786Zm133.528 11.171.785.236.236-.786-.786-.235-.235.785Zm-2.574-12.511.786.235.236-.785-.786-.236-.236.786Z"/><path stroke="#48FF91" stroke-linecap="round" stroke-linejoin="round" stroke-width=".469" d="m160.084 83.695 23.79 22.201c.455.422 1.331.769 1.954.769h9.271c.801 0 1.907.478 2.46 1.059l9.828 10.386"/><path fill="#F4F4F7" d="M168.628 65.253h-29.564v29.564h29.564V65.253Z"/><path fill="#48FF91" stroke="#0500FF" stroke-linecap="round" stroke-linejoin="round" stroke-width=".469" d="m139.064 94.817 11.544 8.352.023-27.193-11.567-10.723v29.564Z"/><path fill="#48FF91" stroke="#0500FF" stroke-linecap="round" stroke-linejoin="round" stroke-width=".469" d="M139.064 65.253h29.564l9.266 10.723h-27.263l-11.567-10.723Z"/><path fill="url(#b)" d="M172.404 85.185c-2.526-7.4-9.88-14.12-16.422-15.011-6.543-.895-9.8 4.377-7.269 11.777 2.526 7.396 9.879 14.117 16.422 15.012 6.543.89 9.8-4.377 7.269-11.778Z"/><path fill="#0500FF" d="M163.472 74.405c-2.118-1.532-4.405-2.573-6.589-2.873-5.732-.782-8.586 3.839-6.374 10.32a18.28 18.28 0 0 0 1.256 2.84l11.707-10.291v.004Z"/><path fill="#48FF91" d="m171.051 95.514-1.457 1.284c-1.401 1.233-3.421 1.79-5.915 1.448-6.543-.895-13.896-7.61-16.422-15.011-1.561-4.574-.914-8.338 1.354-10.33l1.458-1.284c-2.269 1.997-2.915 5.755-1.355 10.33 2.527 7.395 9.88 14.116 16.423 15.011 2.498.343 4.518-.215 5.914-1.448Z"/><path fill="#0500FF" d="m156.377 92.731-1.458 1.284c2.746 2.269 5.83 3.834 8.755 4.232 2.498.342 4.518-.215 5.914-1.448l1.458-1.284c-1.401 1.233-3.421 1.79-5.915 1.448-2.924-.398-6.008-1.964-8.754-4.232Zm-3.15-3.088a26.813 26.813 0 0 1-1.57-2.01l-1.458 1.284a25.215 25.215 0 0 0 1.57 2.01l1.458-1.284Z"/><path stroke="#0500FF" stroke-linecap="round" stroke-linejoin="round" stroke-width=".469" d="m171.051 95.514-1.457 1.284c-1.401 1.233-3.421 1.79-5.915 1.448-6.543-.895-13.896-7.61-16.422-15.011-1.561-4.574-.914-8.338 1.354-10.33l1.458-1.284c-2.269 1.997-2.915 5.755-1.355 10.33 2.527 7.395 9.88 14.116 16.423 15.011 2.498.343 4.518-.215 5.914-1.448Z"/><path stroke="#0500FF" stroke-linecap="round" stroke-linejoin="round" stroke-width=".469" d="M172.404 85.185c-2.526-7.4-9.88-14.12-16.422-15.011-6.543-.895-9.8 4.377-7.269 11.777 2.526 7.396 9.879 14.117 16.422 15.012 6.543.89 9.8-4.377 7.269-11.778Z"/><path fill="#2D9FFF" stroke="#0500FF" stroke-linecap="round" stroke-linejoin="round" stroke-width=".469" d="m177.868 103.169-9.243-8.352h-29.587l11.567 8.352h27.263Z"/><path fill="#0500FF" stroke="#0500FF" stroke-linecap="round" stroke-linejoin="round" stroke-width=".469" d="m168.627 94.817 9.242 8.352.024-27.193-9.266-10.723v29.564Z"/><path stroke="#48FF91" stroke-linecap="round" stroke-linejoin="round" stroke-width=".469" d="m166.63 122.661 11.314 7.447c.726.478 1.321 1.584 1.321 2.456v1.519c0 .871.61 1.959 1.35 2.413l12.865 7.907"/><path fill="#0500FF" stroke="#0500FF" stroke-linecap="round" stroke-linejoin="round" stroke-width=".469" d="m171.532 128.181 4.476 2.855v-12.092l-4.476-3.347v12.584Z"/><path fill="#2D9FFF" stroke="#0500FF" stroke-linecap="round" stroke-linejoin="round" stroke-width=".469" d="m158.957 128.182 4.963 2.854h12.092l-4.476-2.854h-12.579Z"/><path fill="#48FF91" stroke="#0500FF" stroke-linecap="round" stroke-linejoin="round" stroke-width=".469" d="M171.536 115.597h-12.579v12.58h12.579v-12.58Z"/><path stroke="#48FF91" stroke-linecap="round" stroke-linejoin="round" stroke-width=".469" d="m184.831 160.854-37.224-15.364c-1.359-.544-2.474-2.189-2.474-3.651v-14.824c0-1.467-1.059-3.225-2.358-3.904L87.973 94.207m89.605 82.704-78.865-15.535a3.288 3.288 0 0 1-2.654-3.227v-7.668a3.289 3.289 0 0 0-2.353-3.153l-22.52-6.683"/><path fill="#2D9FFF" d="M129.413 70.132c0-1.594-.959-3.778-2.13-4.856L57.923 1.55C55.999-.217 54.425.472 54.425 3.084v85.724c0 2.071 1.451 4.63 3.227 5.692l69.272 37.268c1.368.817 2.484.182 2.484-1.407V70.127l.005.005Z"/><path fill="#0500FF" d="M78.518 21.481 55.656 59.63v30.02c0 1.161.812 2.593 1.806 3.188l3.754 2.249 30.723-61.272-13.421-12.334Z"/><path stroke="#0500FF" stroke-linecap="round" stroke-linejoin="round" stroke-width=".492" d="m56.485 80.774 72.918 46.906m-28.18-75.682v.985"/><path stroke="#0500FF" stroke-dasharray="0.98 2.95" stroke-linecap="round" stroke-linejoin="round" stroke-width=".492" d="M101.223 56.815v49.838"/><path fill="#48FF91" stroke="#48FF91" stroke-width=".492" d="M102.542 51.721c.159.765.131 1.48-.031 2.015-.164.545-.444.842-.746.905-.302.062-.677-.1-1.044-.535-.361-.426-.67-1.072-.828-1.836-.159-.765-.13-1.48.03-2.015.165-.545.445-.842.747-.905.303-.062.677.1 1.045.535.36.426.669 1.072.827 1.836Z"/><path stroke="#48FF91" stroke-linecap="round" stroke-linejoin="round" stroke-width=".492" d="M55.656 68.627c7.36 4.91 6.298-17.608 11.208-13.682S71.036 84.719 77.377 89.3c6.342 4.58 7.646-16.344 13.245-17.416 5.599-1.073 5.8-24.3 10.819-20.211 5.018 4.088 4.472 39.354 9.101 43.678 4.63 4.325 6.79-9.815 10.268-6.873 3.478 2.942 2.352 8.423 5.786 11.198l2.819 2.278"/><path fill="#1B1B1C" d="M76.675 123.779h-42.07v42.07h42.07v-42.07Z"/><path fill="#FFAEFE" stroke="#0500FF" stroke-linecap="round" stroke-linejoin="round" stroke-width=".47" d="m13.098 111.711 21.507 12.068h42.07l-17.532-12.068H13.098Zm0 46.046 21.507 3.745v-37.723l-21.507-12.068v46.046Z"/><path fill="url(#c)" stroke="#0500FF" stroke-linecap="round" stroke-linejoin="round" stroke-width=".47" d="M49.939 162.018c11.759 0 21.291-9.533 21.291-21.291 0-11.759-9.532-21.292-21.291-21.292-11.76 0-21.291 9.533-21.291 21.292 0 11.758 9.532 21.291 21.29 21.291Z"/><path stroke="#0500FF" stroke-linecap="round" stroke-linejoin="round" stroke-width=".47" d="M66.543 154.057c-2.03 2.519-11.099-1.414-20.257-8.791-9.159-7.378-14.938-15.399-12.908-17.918m37.362 16.77c-1.749 2.171-9.554-1.217-17.439-7.565-7.885-6.348-12.856-13.256-11.108-15.422m15.59 39.082c-1.748 2.171-9.553-1.217-17.438-7.565-7.885-6.348-12.856-13.256-11.108-15.422"/><path stroke="#0500FF" stroke-linecap="round" stroke-linejoin="round" stroke-width=".47" d="M63.265 130.257c-.432 4.281-2.34 9.703-5.559 15.079-6.038 10.094-14.403 16.198-18.679 13.637m-2.714-1.927c-.667-.554 4.906-8.327 12.443-17.353 4.168-4.995 8.068-9.328 10.831-12.105m-25.8 26.964c-4.07-4.751-.127-14.807 8.806-22.457 4.629-3.961 9.685-6.504 14.05-7.368"/><path stroke="#0500FF" stroke-linecap="round" stroke-linejoin="round" stroke-width=".47" d="M66.579 131.732c1.217 4.244 1.193 9.182-.353 14.088-3.529 11.217-13.674 18.016-22.659 15.192m-11.593-8.914c-5.47-8.627-1.851-20.727 8.082-27.024 4.653-2.951 9.868-4.102 14.661-3.604"/><path stroke="#0500FF" stroke-linecap="round" stroke-linejoin="round" stroke-width=".47" d="M70.747 144.11c-1.753 2.176-9.563-1.212-17.443-7.56-7.885-6.349-12.857-13.256-11.104-15.432m26.256 10.543c.833-1.034-1.532-4.323-5.283-7.344-3.751-3.022-7.468-4.632-8.302-3.597-.833 1.035 1.532 4.323 5.283 7.344 3.752 3.022 7.468 4.632 8.302 3.597Z"/><path fill="#0500FF" stroke="#0500FF" stroke-linecap="round" stroke-linejoin="round" stroke-width=".47" d="m59.148 157.757 17.73 4.171v-42.07l-17.73-8.147v46.046Z"/><path fill="#2D9FFF" stroke="#0500FF" stroke-linecap="round" stroke-linejoin="round" stroke-width=".47" d="m13.098 157.757 21.6 4.171h42.07l-17.625-4.171H13.098Z"/><path stroke="#0500FF" stroke-linecap="round" stroke-linejoin="round" stroke-width=".47" d="M59.143 111.711H13.098v46.046h46.045v-46.046Z"/><path stroke="#F4F4F7" stroke-linecap="round" stroke-linejoin="round" stroke-width=".47" d="M13.864 134.731h45.28l17.537 10.085"/><path fill="#F4F4F7" stroke="#F4F4F7" stroke-linecap="round" stroke-linejoin="round" stroke-width=".47" d="M36.12 146.611c6.56 0 11.879-5.318 11.879-11.879s-5.319-11.879-11.88-11.879c-6.56 0-11.879 5.318-11.879 11.879s5.319 11.879 11.88 11.879Z"/><path stroke="#48FF91" stroke-linecap="round" stroke-linejoin="round" stroke-width=".469" d="m54.743 219.555 56.864-4.522c1.463-.118 2.653-1.411 2.653-2.873v-18.958a2.477 2.477 0 0 1 2.658-2.498l50.541 3.182"/><path fill="#2D9FFF" stroke="#0500FF" stroke-linecap="round" stroke-linejoin="round" stroke-width=".469" d="M149.065 184.507h-22.796v22.797h22.796v-22.797Z"/><path fill="#0500FF" d="M135.097 196.65h-2.653v4.214h2.653v-4.214Zm3.868-5.708h-2.653v9.922h2.653v-9.922Zm3.91 2.906h-2.652v7.016h2.652v-7.016Z"/><path fill="#0500FF" stroke="#0500FF" stroke-linecap="round" stroke-linejoin="round" stroke-width=".469" d="m157.057 185.656-7.995-1.149v22.797l7.995-.197v-21.451Z"/><path fill="#F4F4F7" d="M235.102 66.05h.009l-2.61-3.225h-.005c1.444 1.79 1.725 4.293.474 6.67l-88.556 168.211c-1.913 3.632-6.688 5.634-10.621 4.448L5.559 203.516c-1.354-.407-2.432-1.148-3.191-2.09h-.01l2.61 3.229h.01c.76.933 1.837 1.673 3.192 2.081l128.234 38.638c3.927 1.185 8.708-.821 10.62-4.448L235.58 72.714c1.252-2.376.97-4.884-.473-6.665h-.005Z"/><path fill="#FFAEFE" d="M142.955 244.726a9.41 9.41 0 0 0 2.831-2.076l-2.61-3.22a9.455 9.455 0 0 1-2.831 2.077l2.61 3.219Zm72.884-134.523 15.457-29.353-1.532-5.272-15.457 29.357 1.532 5.268Z"/><path stroke="#0500FF" stroke-linecap="round" stroke-linejoin="round" stroke-width=".469" d="M212.283 112.875c-.37.698-.262 1.776.234 2.39l.399.492 7.752-14.726-.399-.492c-.497-.614-1.204-.544-1.574.155l-6.412 12.181Z"/><path fill="#1B1B1C" d="M138.978 242.05c-1.692.53-3.515.61-5.188.104L5.556 203.516c-1.355-.408-2.433-1.148-3.192-2.09h-.01l2.611 3.229h.01c.759.933 1.837 1.673 3.191 2.081L136.4 245.373c1.673.502 3.496.427 5.188-.103l-2.61-3.22Z"/><path stroke="#0500FF" stroke-linecap="round" stroke-linejoin="round" stroke-width=".469" d="M235.102 66.05h.009l-2.61-3.225h-.005c1.444 1.79 1.725 4.293.474 6.67l-88.556 168.211c-1.913 3.632-6.688 5.634-10.621 4.448L5.559 203.516c-1.354-.407-2.432-1.148-3.191-2.09h-.01l2.61 3.229h.01c.76.933 1.837 1.673 3.192 2.081l128.234 38.638c3.927 1.185 8.708-.821 10.62-4.448L235.58 72.714c1.252-2.376.97-4.884-.473-6.665h-.005Z"/><path fill="#48FF91" d="M91.46 195.611H47.639v43.821h43.82v-43.821Z"/><path fill="#48FF91" stroke="#0500FF" stroke-linecap="round" stroke-linejoin="round" stroke-width=".469" d="M66.334 195.611H47.64v43.821l18.695-2.784v-41.037Z"/><path fill="#48FF91" stroke="#0500FF" stroke-linecap="round" stroke-linejoin="round" stroke-width=".469" d="m47.639 239.431 18.695-2.784h41.061l-15.935 2.784H47.639Z"/><path fill="url(#d)" stroke="#0500FF" stroke-linecap="round" stroke-linejoin="round" stroke-width=".469" d="M84.743 232.073c6.702-2.343 11.684-5.53 11.13-7.119l-9.26-26.475-24.268 8.487 9.26 26.476c.554 1.589 6.44.975 13.138-1.369Z"/><path fill="#0500FF" d="m66.837 205.391-3.023 1.059 9.74 27.849c.88.066 2.01 0 3.322-.197l-10.039-28.711Z"/><path stroke="#0500FF" stroke-linecap="round" stroke-linejoin="round" stroke-width=".469" d="M92.782 216.128c.553 1.589-4.43 4.771-11.131 7.119-6.702 2.344-12.584 2.958-13.137 1.369m21.179-17.313c.553 1.589-4.43 4.771-11.131 7.119-6.702 2.344-12.584 2.957-13.137 1.369"/><path fill="#48FF91" stroke="#0500FF" stroke-linecap="round" stroke-linejoin="round" stroke-width=".469" d="M75.49 205.573c6.702-2.344 11.685-5.53 11.13-7.116-.554-1.586-6.437-.971-13.139 1.374-6.701 2.344-11.685 5.53-11.13 7.116.555 1.585 6.437.97 13.14-1.374Z"/><path fill="#0500FF" d="M75.486 205.594c6.702-2.344 11.684-5.531 11.13-7.12-.355-1.012-2.881-1.129-6.406-.468l-5.97 8.005c.412-.132.829-.272 1.246-.422v.005Z"/><path fill="#0500FF" stroke="#0500FF" stroke-linecap="round" stroke-linejoin="round" stroke-width=".469" d="m107.396 195.981-15.935-.37v43.821l15.935-2.784v-40.667Z"/><defs><linearGradient id="a" x1="82.924" x2="82.924" y1="250.043" y2="201.54" gradientUnits="userSpaceOnUse"><stop stop-color="#0500FF"/><stop offset=".34" stop-color="#1540FF"/><stop offset=".64" stop-color="#2273FF"/><stop offset=".87" stop-color="#2A93FF"/><stop offset="1" stop-color="#2D9FFF"/></linearGradient><linearGradient id="b" x1="152.293" x2="165.613" y1="83.948" y2="83.334" gradientUnits="userSpaceOnUse"><stop stop-color="#47FD92"/><stop offset=".22" stop-color="#3EDBB9"/><stop offset=".42" stop-color="#36C1D7"/><stop offset=".63" stop-color="#31AEED"/><stop offset=".82" stop-color="#2EA2FA"/><stop offset="1" stop-color="#2D9FFF"/></linearGradient><linearGradient id="d" x1="89.097" x2="78.912" y1="212.234" y2="217.118" gradientUnits="userSpaceOnUse"><stop stop-color="#47FD92"/><stop offset=".22" stop-color="#3EDBB9"/><stop offset=".42" stop-color="#36C1D7"/><stop offset=".63" stop-color="#31AEED"/><stop offset=".82" stop-color="#2EA2FA"/><stop offset="1" stop-color="#2D9FFF"/></linearGradient><radialGradient id="c" cx="0" cy="0" r="1" gradientTransform="translate(44.78 135.717) scale(21.296)" gradientUnits="userSpaceOnUse"><stop offset=".62" stop-color="#FFAEFE"/><stop offset=".68" stop-color="#FFB0F8"/><stop offset=".74" stop-color="#FFB7E9"/><stop offset=".81" stop-color="#FFC2D0"/><stop offset=".88" stop-color="#FFD2AD"/><stop offset=".96" stop-color="#FFE781"/><stop offset="1" stop-color="#FFF465"/></radialGradient></defs></svg>