<svg xmlns="http://www.w3.org/2000/svg" width="227" height="228" fill="none"><path fill="#1B1B1C" stroke="#0500FF" stroke-linejoin="round" stroke-width=".735" d="m119.146 183.947-22.424 24.401c60.563 21.909 95.658 10.16 105.245-17.055-28.078 14.875-66.913 1.3-82.821-7.346ZM20.956 157.561l11.587-15.56c-19.77-26.903-40.037-72.534-9.016-92.73-7.212 22.298 13.268 55.661 24.41 69.556l7.118-9.601L94.12 172.79l-73.164-15.229Z"/><mask id="a" width="98" height="104" x="32" y="36" maskUnits="userSpaceOnUse" style="mask-type:alpha"><path fill="#0500FF" fill-rule="evenodd" d="M66.856 37.218c23.656 3.226 50.24 27.53 59.381 54.284 9.141 26.748-2.637 45.812-26.293 42.584-23.663-3.227-50.247-27.529-59.38-54.277-1.63-4.77-2.596-9.296-2.947-13.494.35 4.2 1.315 8.728 2.945 13.502 9.134 26.747 35.719 51.05 59.381 54.277 9.029 1.229 16.325-.779 21.386-5.23l-5.265 4.633c-5.068 4.45-12.368 6.468-21.395 5.239-23.663-3.228-50.247-27.53-59.38-54.278-5.652-16.54-3.306-30.145 4.897-37.36l4.998-4.399c5.075-4.623 12.475-6.736 21.672-5.481Z" clip-rule="evenodd"/></mask><g mask="url(#a)"><circle cx="78.722" cy="85.504" r="64.864" fill="#F6921A"/></g><path fill="#fff" fill-rule="evenodd" d="M84.223 72.932c-3.38-3.362-6.265-2.85-8.866-1.041l-4.406-4.927-1.78 1.665 4.29 4.797c-.468.437-.932.9-1.393 1.36l-4.319-4.829-1.779 1.664 4.404 4.926c-.373.374-.74.74-1.11 1.086l-.013-.015-2.457 2.294 2.865 3.203s1.277-1.272 1.291-1.21c.722-.674 1.588-.19 2.2.356l5.02 5.613c.05-.046.118-.103.207-.155l-.188.175 7.032 7.865c.31.412.722 1.146.22 1.618.052.013-1.295 1.21-1.295 1.21l2.85 3.913 2.317-2.167c.262-.244.525-.482.785-.717h.002l.5-.454 4.458 4.983 1.779-1.662-4.41-4.931c.504-.44.982-.875 1.443-1.307l4.388 4.909 1.78-1.665-4.448-4.975c2.734-3.088 3.693-6.317-.281-11.293-3.2-4.01-5.785-4.716-8.1-3.815.239-1.852-.51-4.015-2.986-6.474Zm7.038 12.983c3.057 3.418-.198 6.323-1.686 7.652-.134.119-.253.225-.352.318l-5.904-6.603c.121-.114.263-.257.424-.42 1.44-1.456 4.393-4.44 7.518-.947Zm-10.346-1.922c1.247-1.104 3.964-3.51 1.187-6.617-2.84-3.177-5.29-.677-6.486.544-.135.137-.253.258-.355.353l5.355 5.989c.084-.079.186-.168.299-.269Z" clip-rule="evenodd"/><path fill="#F6921A" d="M112.2 75.207c14.027 21.99 12.361 44.177-3.582 49.587-15.943 5.411-40.29-8.057-54.27-29.993-14.027-21.99-12.394-44.148 3.581-49.587 16.022-5.385 40.29 8.057 54.271 29.993Z"/><path fill="#fff" d="M88.087 71.329c-3.78-5.189-8.226-5.838-12.815-4.95l-4.723-7.383-3.287 1.074 4.583 7.223c-.882.297-1.718.648-2.568.917l-4.629-7.276-3.287 1.074 4.723 7.383c-.706.238-1.365.53-2.038.74l-4.522 1.49 3.039 4.797s2.39-.858 2.358-.83c1.347-.42 2.428.43 3.143 1.315l5.354 8.435c.111-.003.208-.088.352-.119-.111.003-.208.088-.352.119l7.513 11.831c.291.595.653 1.6-.262 1.925.08.026-2.358.83-2.358.83l2.768 5.6 4.266-1.456c.818-.241 1.588-.536 2.373-.749l4.736 7.466 3.288-1.074-4.723-7.383c.93-.244 1.811-.542 2.614-.865l4.676 7.33 3.287-1.073-4.737-7.466c5.24-2.304 7.854-5.525 3.83-12.762-3.257-5.833-6.834-7.711-10.609-7.72 1.09-1.893.764-4.625-1.993-8.443Zm5.597 17.555c3.549 5.578-3.813 7.28-6.027 8.08l-6.28-9.891c2.215-.8 8.604-4.01 12.307 1.81ZM83.273 75.43c3.24 5.094-2.951 6.436-4.78 7.088l-5.71-8.975c1.83-.65 7.095-3.449 10.49 1.887Z"/><path fill="url(#b)" fill-rule="evenodd" d="M122.171 89.717c-8.011-23.443-31.319-44.753-52.046-47.575l.001.001c10.825 1.475 26.766 10.003 37.425 23.15l-45.418 39.386c10.537 11.904 24.252 20.623 36.993 22.362 20.727 2.829 31.055-13.889 23.045-37.324Zm-65.553 8.026a183.182 183.182 0 0 0 3.482 4.552 82.73 82.73 0 0 1-3.482-4.552ZM44.374 64.316a43.457 43.457 0 0 1 .252-3.87 32.07 32.07 0 0 0-.252 3.87Zm21.574-22.479a32.577 32.577 0 0 0-4.497.326 26.831 26.831 0 0 1 4.497-.326Z" clip-rule="evenodd"/><path fill="#1B1B1C" d="m68.298 118.782-5.275 4.642c9.923 8.203 21.083 13.861 31.66 15.304 9.034 1.229 16.334-.782 21.395-5.239l5.274-4.642c-5.068 4.45-12.368 6.469-21.395 5.239-10.577-1.443-21.736-7.108-31.66-15.304ZM56.911 107.615a93.509 93.509 0 0 1-5.672-7.279l-5.274 4.642a95.078 95.078 0 0 0 5.672 7.278l5.274-4.641Z"/><path fill="url(#c)" fill-rule="evenodd" d="M108.206 134.283c18.02-1.822 26.057-19.356 18.05-42.791-9.133-26.748-35.718-51.05-59.38-54.278C43.22 33.988 31.442 53.052 40.583 79.8c8.846 25.892 34.028 49.487 57.083 53.907-2.59-.5-5.208-1.247-7.822-2.2l.709-6.61c-18.222-6.531-36.551-25.181-43.464-45.422-8.01-23.442 2.31-40.16 23.045-37.324l-.007-.007c20.727 2.822 44.034 24.132 52.045 47.574 4.342 12.703 3.296 23.432-1.873 30.145l3.471 6.455c-3.622 4.469-8.911 7.29-15.564 7.966Z" clip-rule="evenodd"/><path fill="#fff" d="M84.86 122.464a64.692 64.692 0 0 1-6.909-3.973l-2.352 5.722a75.168 75.168 0 0 0 7.804 4.52l1.457-6.269Z"/><path stroke="#0500FF" stroke-linecap="round" stroke-linejoin="round" stroke-width=".705" d="m121.353 128.854-5.274 4.642c-5.068 4.45-12.368 6.468-21.395 5.239-23.663-3.227-50.247-27.53-59.381-54.278-5.651-16.54-3.305-30.145 4.897-37.36l5.274-4.641c-8.202 7.214-10.548 20.812-4.897 37.36 9.134 26.747 35.718 51.05 59.38 54.277 9.035 1.23 16.335-.782 21.396-5.239Z"/><path fill="#0500FF" fill-rule="evenodd" d="M66.92 36.867c-11.94-1.628-20.95 2.367-25.796 10.217-4.833 7.828-5.47 19.403-.879 32.838 4.589 13.438 13.555 26.249 24.338 36.105 10.78 9.854 23.405 16.782 35.329 18.408 11.935 1.628 20.946-2.367 25.793-10.216 4.833-7.827 5.471-19.4.881-32.832-4.592-13.441-13.561-26.254-24.343-36.111-10.78-9.855-23.403-16.782-35.324-18.409ZM40.911 79.694c-4.55-13.319-3.871-24.654.812-32.24 4.67-7.563 13.376-11.487 25.1-9.888 11.735 1.6 24.231 8.438 34.943 18.23 10.709 9.79 19.603 22.506 24.152 35.82l.327-.113-.327.112c4.55 13.316 3.87 24.649-.814 32.234-4.671 7.563-13.377 11.486-25.098 9.887-11.739-1.6-24.237-8.438-34.948-18.229-10.709-9.789-19.602-22.503-24.147-35.813Z" clip-rule="evenodd"/><path stroke="#0500FF" stroke-linecap="round" stroke-linejoin="round" stroke-width=".705" d="M126.251 91.501c-9.141-26.754-35.725-51.057-59.38-54.284-23.663-3.227-35.434 15.837-26.293 42.592 9.134 26.747 35.718 51.05 59.38 54.277 23.656 3.227 35.434-15.837 26.293-42.585Z"/><mask id="d" width="110" height="95" x="82" y="93" maskUnits="userSpaceOnUse" style="mask-type:alpha"><path fill="#44E841" fill-rule="evenodd" d="M179.733 114.891c-18.663-20.802-52.48-27.338-75.537-14.609-10.169 5.612-16.548 14.032-18.904 23.477l-.987 3.197c-3.834 12.399-.547 26.827 10.422 39.052 18.656 20.795 52.472 27.33 75.536 14.602 9.511-5.246 15.707-12.95 18.393-21.655l1.297-4.197a34.644 34.644 0 0 0 1.739-11.036c.014-9.682-3.896-19.852-11.952-28.831h-.007ZM142.39 182.23a67.715 67.715 0 0 1-12.287-1.648l-.143-.032c-12.803-2.947-24.95-9.579-33.735-19.371-8.06-8.985-11.974-19.159-11.96-28.844-.002-.331.002-.661.01-.991-.293 9.979 3.607 20.543 11.943 29.834 11.604 12.935 29.073 20.355 46.172 21.052Z" clip-rule="evenodd"/></mask><g mask="url(#d)"><ellipse cx="134.066" cy="140.127" fill="#0F8F62" rx="69.523" ry="69.183"/></g><path fill="#fff" fill-rule="evenodd" d="M153.292 131.431c-.209-3.758-4.143-5.303-9.188-6.034l.332-5.167-3.928-.289-.323 5.03a203.641 203.641 0 0 0-3.137-.199l.327-5.063-3.925-.291-.333 5.166c-.851-.049-1.687-.098-2.501-.158v-.016l-5.415-.402-.215 3.359s2.902.17 2.851.209c1.591.118 2.062.896 2.17 1.545l-.378 5.886c.11.009.253.023.414.053l-.414-.03-.533 8.245c-.095.396-.431 1.014-1.542.933.048.039-2.854-.211-2.854-.211l-1.022 3.699 5.111.377c.577.043 1.148.09 1.713.137h.001l1.089.089-.335 5.227 3.922.29.334-5.17c1.075.097 2.117.181 3.134.256l-.333 5.146 3.927.29.336-5.216c6.621.184 11.328-.806 12.219-5.728.721-3.964-1.511-5.922-5.212-6.92 2.335-.762 3.864-2.293 3.707-5.043h.001Zm-16.68 13.479a59.104 59.104 0 0 0-.764-.063l.447-6.923c.267.019.593.037.961.057 3.298.182 10.057.553 9.824 4.217h-.001c-.229 3.584-7.255 2.985-10.467 2.712Zm.532-10.101c2.681.234 8.525.743 8.736-2.514.215-3.331-5.42-3.627-8.172-3.772-.31-.016-.583-.031-.807-.047l-.404 6.279c.185.014.403.033.647.054Z" clip-rule="evenodd"/><path fill="#0F8F62" d="M185.627 141.041c-1.885 20.708-24.39 35.585-50.265 33.23-25.876-2.355-45.324-21.052-43.44-41.76 1.886-20.708 24.39-35.585 50.266-33.23 25.876 2.355 45.324 21.052 43.439 41.76Z"/><path fill="#fff" d="m139.778 161.079.438-4.812c8.894-.072 14.27-3.883 14.803-9.734.517-5.687-3.508-9.141-13.256-11.793l1.02-11.209c3.85.847 6.443 2.626 8.236 4.885l5.36-2.876c-2.85-3.512-6.975-5.872-12.743-6.838l.433-4.757-5.808-.529-.433 4.757c-8.332-.042-13.848 3.04-14.376 8.836-.503 5.523 3.367 9.183 12.983 11.767l-1.115 12.249c-4.265-.829-7.385-2.878-9.938-5.867l-5.316 3.155c3.118 3.592 7.472 6.469 14.333 7.535l-.428 4.702 5.807.529Zm8.032-14.817c-.274 3.008-3.07 4.959-7.566 5.156l1.036-11.374c5.23 1.579 6.779 3.484 6.53 6.218Zm-17.227-18.88c.249-2.734 2.936-4.253 7.286-4.353l-.946 10.389c-4.552-1.462-6.614-3.028-6.34-6.036Z"/><path fill="url(#e)" fill-rule="evenodd" d="M179.959 114.703c-18.707-20.953-52.602-27.536-75.713-14.715-23.118 12.821-26.697 40.194-7.99 61.147 8.815 9.874 21.006 16.557 33.854 19.521l1.347-6.205c1.504.346 3.018.632 4.535.86-12.896-1.945-25.465-8.161-34.222-17.97-16.392-18.355-13.253-42.352 7.003-53.59 20.249-11.237 49.97-5.46 66.356 12.895 16.301 18.253 13.279 42.103-6.694 53.407l3.786 5.649c22.885-12.879 26.376-40.129 7.745-60.999h-.007Zm-30.034 67.513-1.058-6.409c-2.483.19-4.998.21-7.518.063l.013 6.411a63.84 63.84 0 0 0 8.563-.065Zm17.348-11.529c.284-.149.566-.302.847-.457l.023-.014a46.097 46.097 0 0 1-.87.471Z" clip-rule="evenodd"/><path fill="#1B1B1C" stroke="#0500FF" stroke-width=".677" d="M172.127 176.33c7.131-3.953 12.426-9.291 15.793-15.402-2.949 7.881-8.866 14.825-17.617 19.675-22.967 12.737-56.692 6.201-75.296-14.638l-.253.225.253-.225c-10.341-11.582-13.807-25.11-10.926-37.004-1.011 10.811 2.87 22.458 11.916 32.59 18.796 21.054 52.862 27.69 76.13 14.779Z"/><path fill="url(#f)" fill-rule="evenodd" d="M98.6 111.987c-10.554 12.481-9.906 30.713 3.17 45.355 16.379 18.348 46.1 24.125 66.35 12.888 18.837-10.445 22.871-31.937 10.164-49.653l-79.684-8.59Z" clip-rule="evenodd"/><path stroke="#0500FF" stroke-width=".677" d="M190.734 153.695c-6.889 23.05-35.896 34.861-64.904 26.191-29.008-8.67-46.776-34.461-39.886-57.512 6.89-23.05 35.896-34.86 64.904-26.19 29.008 8.67 46.776 34.461 39.886 57.511Z"/><path fill="url(#g)" stroke="#0500FF" stroke-linejoin="round" stroke-width=".735" d="m94.12 172.789-73.165-15.228-2.034 6.226 71.65 13.258 3.549-4.256Z"/><path fill="url(#h)" d="M23.527 49.27c-31.021 20.196-10.753 65.828 9.016 92.731l-4.04 5.426C-39.478 48.511 32.22 30.223 76.566 33.444l5.529 6.121c-28.396-1.799-47.03 2.194-58.569 9.706Z"/><path fill="url(#i)" d="m99.103.733-22.536 32.71c-24.601-1.786-57.62 3.047-70.54 24.592C25.261 14.407 76.092 1.655 99.103.733Z"/><path fill="url(#j)" d="m99.103.733-22.537 32.71 5.53 6.122 22.653-32.457L99.103.733Z"/><path fill="url(#k)" stroke="#0500FF" stroke-linejoin="round" stroke-width=".735" d="m192.557 36.398-88.103-8.76 50.666 74.463 9.786-18.12c19.534 16.187 59.226 62.128 43.127 111.986 41.461-66.104 1.372-124.444-23.855-145.35l8.379-14.22Z"/><path fill="url(#l)" stroke="#0500FF" stroke-linejoin="round" stroke-width=".485" d="m164.905 83.981-2.899 5.369c73.721 77.827 51.861 161.377-65.284 118.998l1.405 7.393c89.278 35.755 109.906-19.773 109.906-19.773 16.099-49.858-23.593-95.799-43.128-111.987Z"/><path fill="url(#m)" stroke="#0500FF" stroke-linejoin="round" stroke-width=".485" d="m155.12 102.101-50.666-74.463-3.506 5.616 44.831 68.847h9.341Z"/><path fill="url(#n)" stroke="#0500FF" stroke-linejoin="round" stroke-width=".485" d="M23.527 49.27c-31.021 20.196-10.753 65.828 9.016 92.731l-4.04 5.426C-39.478 48.511 32.22 30.223 76.566 33.444l5.529 6.121c-28.396-1.799-47.03 2.194-58.569 9.706Z"/><path fill="url(#o)" stroke="#0500FF" stroke-linejoin="round" stroke-width=".735" d="m99.103.733-22.536 32.71c-24.601-1.786-57.62 3.047-70.54 24.592C25.261 14.407 76.092 1.655 99.103.733Z"/><path fill="url(#p)" stroke="#0500FF" stroke-linejoin="round" stroke-width=".485" d="m99.103.733-22.537 32.71 5.53 6.122 22.653-32.457L99.103.733Z"/><defs><linearGradient id="b" x1="44.366" x2="124.879" y1="84.592" y2="84.592" gradientUnits="userSpaceOnUse"><stop stop-color="#fff"/><stop offset="1" stop-color="#fff" stop-opacity="0"/></linearGradient><linearGradient id="c" x1="129.355" x2="37.485" y1="85.567" y2="85.567" gradientUnits="userSpaceOnUse"><stop stop-color="#fff"/><stop offset="1" stop-color="#fff" stop-opacity="0"/></linearGradient><linearGradient id="e" x1="84.257" x2="191.939" y1="137.914" y2="137.914" gradientUnits="userSpaceOnUse"><stop stop-color="#fff"/><stop offset="1" stop-color="#fff" stop-opacity="0"/></linearGradient><linearGradient id="f" x1="185.628" x2="91.266" y1="143.975" y2="143.975" gradientUnits="userSpaceOnUse"><stop stop-color="#fff"/><stop offset="1" stop-color="#fff" stop-opacity="0"/></linearGradient><linearGradient id="g" x1="56.52" x2="56.52" y1="157.561" y2="177.045" gradientUnits="userSpaceOnUse"><stop offset=".06" stop-color="#FFF9A8"/><stop offset=".75" stop-color="#FFAEFE"/></linearGradient><linearGradient id="h" x1="52.512" x2="3.224" y1="36.192" y2="173.737" gradientUnits="userSpaceOnUse"><stop stop-color="#E7AA10"/><stop offset="1" stop-color="#B18002"/></linearGradient><linearGradient id="i" x1="-9.311" x2="98.554" y1="45.622" y2="88.361" gradientUnits="userSpaceOnUse"><stop stop-color="#F0B90B"/><stop offset=".429" stop-color="#FBDA3C"/><stop offset="1" stop-color="#FCEA9C"/></linearGradient><linearGradient id="j" x1="93.028" x2="60.303" y1="-2.579" y2="94.558" gradientUnits="userSpaceOnUse"><stop stop-color="#E7AA10"/><stop offset="1" stop-color="#B18002"/></linearGradient><linearGradient id="k" x1="165.204" x2="165.204" y1="27.638" y2="195.967" gradientUnits="userSpaceOnUse"><stop offset=".046" stop-color="#2ECCFF"/><stop offset="1" stop-color="#0500FF"/></linearGradient><linearGradient id="l" x1="154.255" x2="154.255" y1="83.981" y2="227.743" gradientUnits="userSpaceOnUse"><stop offset=".06" stop-color="#FFF9A8"/><stop offset=".75" stop-color="#FFAEFE"/></linearGradient><linearGradient id="m" x1="128.034" x2="128.034" y1="27.638" y2="102.101" gradientUnits="userSpaceOnUse"><stop offset=".06" stop-color="#FFF9A8"/><stop offset=".75" stop-color="#FFAEFE"/></linearGradient><linearGradient id="n" x1="41.307" x2="41.307" y1="33.103" y2="147.427" gradientUnits="userSpaceOnUse"><stop offset=".06" stop-color="#FFF9A8"/><stop offset=".75" stop-color="#FFAEFE"/></linearGradient><linearGradient id="o" x1="52.565" x2="52.565" y1=".733" y2="58.035" gradientUnits="userSpaceOnUse"><stop offset=".046" stop-color="#2ECCFF"/><stop offset="1" stop-color="#0500FF"/></linearGradient><linearGradient id="p" x1="90.658" x2="90.658" y1=".733" y2="39.565" gradientUnits="userSpaceOnUse"><stop offset=".06" stop-color="#FFF9A8"/><stop offset=".75" stop-color="#FFAEFE"/></linearGradient></defs></svg>