<svg xmlns="http://www.w3.org/2000/svg" width="221" height="253" fill="none" viewBox="0 0 221 253"><path fill="#FFA235" stroke="#0500FF" stroke-linejoin="round" stroke-miterlimit="10" stroke-width=".668" d="m217.865 107.896-2.163-7.921-96.017 26.192 2.162 7.921c.974 3.574 23.256.604 49.771-6.631 26.514-7.234 47.215-15.995 46.241-19.568l.006.007Z"/><path fill="#1B1B1C" stroke="#0500FF" stroke-linejoin="round" stroke-miterlimit="10" stroke-width=".668" d="M121.847 134.088c.668 2.458 11.436 1.821 26.722-1.175l-4.1-11.245-4.328 1.869-1.897-2.442-18.564 5.064 2.162 7.921.005.008Z"/><path fill="#1B1B1C" stroke="#0500FF" stroke-linejoin="round" stroke-miterlimit="10" stroke-width=".668" d="M169.457 119.511c26.514-7.234 47.217-15.996 46.242-19.57-.975-3.575-23.259-.608-49.773 6.627-26.514 7.234-47.218 15.995-46.242 19.57.975 3.574 23.259.607 49.773-6.627Z"/><mask id="a" width="89" height="98" x="113" y="50" maskUnits="userSpaceOnUse" style="mask-type:alpha"><path fill="#44E841" stroke="#44E841" stroke-miterlimit="10" stroke-width=".668" d="m118.244 119.878 3.511-4.367c-.195.245-.383.486-.562.716 1.841-2.409 4.753-5.543 8.717-9.311 14.227-13.508 36.66-30.063 50.088-36.959a57.043 57.043 0 0 1 3.237-1.544c-.065.031-.127.05-.191.08l5.136-2.266c11.633-5.132 9.787 1.18-5.106 15.322-16.235 15.42-41.82 34.298-57.159 42.178-11.472 5.891-13.949 3.955-7.677-3.85l.006.001Z"/><path fill="#44E841" stroke="#44E841" stroke-miterlimit="10" stroke-width=".668" d="m115.111 126.67 4.677 6.067c.905 1.174 4.495.304 10.81-2.94 15.334-7.881 40.924-26.759 57.159-42.177 9.544-9.072 13.728-14.92 12.433-16.595l-4.671-6.066c1.295 1.676-2.89 7.53-12.439 16.593-16.235 15.419-41.82 34.298-57.159 42.177-6.316 3.244-9.905 4.114-10.81 2.941Z"/></mask><g mask="url(#a)"><circle cx="70.651" cy="70.651" r="70.651" fill="#1B1B1C" transform="scale(-1 1) rotate(-12.412 63.464 1136.95)"/></g><path fill="url(#b)" fill-rule="evenodd" d="M121.203 115.789a32.682 32.682 0 0 0 .045-.056l-.045.056Zm-5.886 11.556c1.528.377 4.907-.69 10.158-3.386 15.429-7.93 41.181-26.927 57.517-42.442 14.981-14.233 16.838-20.584 5.133-15.42l-2.584 1.14-2.585 1.14c10.252-4.522 8.625 1.047-4.506 13.514-12.301 11.68-30.714 25.633-44.224 33.732 3.084-1.848 6.424-4.001 9.888-6.363l-.506 3.617c-6.705 4.561-12.995 8.44-18.139 11.08-5.245 2.693-8.621 3.761-10.152 3.388Z" clip-rule="evenodd"/><path fill="url(#c)" fill-rule="evenodd" d="m195.526 64.843-.015-.02 4.699 6.102c.7.907-.193 3.027-2.661 6.212-2.123 2.74-5.41 6.266-9.851 10.487-16.336 15.515-42.087 34.511-57.517 42.441-6.355 3.265-9.967 4.14-10.877 2.96l-4.707-6.106c.91 1.181 4.522.305 10.877-2.959 11.292-5.8 28.1-17.523 42.707-29.474l4.7 6.097a309.6 309.6 0 0 0 6.766-5.69l-4.701-6.098c.678-.587 1.348-1.173 2.008-1.757l4.702 6.1a222.63 222.63 0 0 0 6.036-5.516c4.444-4.218 7.733-7.745 9.857-10.485 2.468-3.184 3.361-5.306 2.661-6.212l-4.684-6.082Z" clip-rule="evenodd"/><path stroke="#0500FF" stroke-miterlimit="10" stroke-width=".668" d="m117.749 120.085 3.534-4.395c-.197.247-.386.489-.566.721 1.852-2.424 4.783-5.578 8.772-9.37 14.316-13.593 36.89-30.25 50.401-37.19a57.593 57.593 0 0 1 3.258-1.554c-.065.031-.128.05-.193.08 1.726-.761 3.444-1.518 5.169-2.28 11.706-5.164 9.849 1.187-5.138 15.419-16.337 15.515-42.082 34.513-57.518 42.442-11.543 5.928-14.036 3.979-7.725-3.874l.006.001Z"/><path fill="#6F84E4" stroke="#0500FF" stroke-miterlimit="10" stroke-width=".668" d="m114.596 126.919 4.707 6.106c.91 1.18 4.522.305 10.878-2.96 15.429-7.93 41.181-26.926 57.517-42.441 9.604-9.128 13.814-15.013 12.511-16.7l-4.7-6.103c1.303 1.686-2.909 7.577-12.518 16.697-16.336 15.516-42.081 34.513-57.517 42.442-6.355 3.265-9.967 4.14-10.878 2.959Z"/><path fill="#1B1B1C" d="M179.647 94.895a313.59 313.59 0 0 1-6.766 5.69l-4.707-6.105a316.175 316.175 0 0 0 6.766-5.69l4.707 6.105Zm-2.698-7.862a222.795 222.795 0 0 0 6.036-5.514c9.611-9.127 13.821-15.012 12.524-16.697l4.7 6.104c1.303 1.687-2.908 7.577-12.517 16.698a222.467 222.467 0 0 1-6.036 5.515l-4.707-6.106Z"/><mask id="d" width="50" height="98" x="107" y="38" maskUnits="userSpaceOnUse" style="mask-type:alpha"><path fill="#44E841" fill-rule="evenodd" d="m143.326 38.615 6.817 2.196c2.468.794 4.181 3.552 5.078 7.826.901 4.297 1.003 10.231.154 17.573-1.34 11.561-4.794 24.467-9.293 35.992-4.497 11.52-10.051 21.69-15.608 27.759-2.027 2.214-3.926 3.744-5.67 4.611-1.745.869-3.355 1.082-4.775.625l-6.817-2.196.094-.292.001-.001.001-.002c-4.597-1.489-6.713-10.429-5.015-25.072l-.008-.004c2.675-23.054 13.782-51.522 24.824-63.573 4.024-4.395 7.483-6.002 10.124-5.153l.093-.289Zm0 0-.093.29h.001l.092-.29Z" clip-rule="evenodd"/><path fill="#44E841" d="m150.143 40.81-.087.295-.007-.002.094-.292Zm-6.817-2.195.087-.294.007.002-.094.292Zm6.817 2.196.087-.295.007.003-.094.292Zm5.078 7.826-.3.063.3-.063Zm.154 17.573.304.036v.004l-.304-.04Zm0 0-.305-.035v-.004l.305.04Zm-9.293 35.992.286.112-.286-.112Zm-15.608 27.759-.226-.207.226.207Zm-5.67 4.611-.136-.275.136.275Zm-4.775.625-.094.292-.014-.005-.014-.006.122-.281Zm0 0 .095-.293.014.005.014.006-.123.282Zm-6.817-2.196-.094.293-.292-.095.094-.292.292.094Zm.094-.292-.292-.094.001-.001.291.095Zm.001-.001.292.093v.002l-.292-.095Zm.001-.002.094-.292.291.094-.093.292-.292-.094Zm-5.015-25.072.12-.283.211.09-.026.228-.305-.035Zm-.008-.004-.12.283-.212-.09.027-.228.305.035Zm24.824-63.573.226.207-.226-.207Zm10.124-5.153-.092.293h-.002l.094-.293Zm.093-.289-.293-.094.092-.285.288.085-.087.294Zm-.092.29.292.093-.093.29-.291-.09.092-.293Zm6.815 2.198-6.817-2.195.188-.585 6.817 2.196-.188.584Zm.007.002.174-.589-.174.589Zm4.865 7.595c-.892-4.252-2.571-6.857-4.872-7.597l.188-.584c2.636.847 4.383 3.758 5.284 8.055l-.6.126Zm.149 17.475c.847-7.325.743-13.223-.149-17.475l.6-.126c.911 4.342 1.01 10.313.158 17.672l-.609-.07Zm0-.004.609.079-.609-.079Zm-9.274 35.92c4.492-11.505 7.937-24.386 9.274-35.916l.609.07c-1.343 11.592-4.804 24.524-9.311 36.069l-.572-.223Zm-15.548 27.663c5.52-6.028 11.057-16.158 15.548-27.663l.572.223c-4.503 11.534-10.073 21.745-15.668 27.854l-.452-.414Zm-5.58 4.543c1.697-.844 3.567-2.345 5.58-4.543l.453.414c-2.042 2.23-3.971 3.789-5.76 4.679l-.273-.55Zm-4.544.607c1.321.426 2.846.238 4.544-.607l.273.55c-1.794.892-3.488 1.13-5.006.642l.189-.585Zm.028.011-.245.563.245-.563Zm-6.846-2.206 6.818 2.195-.189.585-6.817-2.195.188-.585Zm.293.094-.095.292-.584-.188.094-.292.585.188Zm0 0-.001.001-.583-.19v-.001l.584.19Zm.001-.003-.001.001-.584-.187v-.002l.585.188Zm-.387.198c-2.465-.799-4.177-3.558-5.073-7.832-.901-4.297-1.003-10.229-.152-17.568l.61.071c-.847 7.305-.74 13.164.142 17.371.887 4.229 2.531 6.684 4.662 7.374l-.189.584Zm-5.04-25.082-.008-.003.24-.565.008.003-.24.565Zm-.193-.321c1.341-11.558 4.794-24.464 9.293-35.989 4.497-11.52 10.051-21.69 15.61-27.756l.452.415c-5.483 5.984-11.004 16.073-15.49 27.564-4.483 11.485-7.921 24.34-9.255 35.837l-.61-.071Zm24.903-63.745c2.026-2.213 3.926-3.743 5.67-4.61 1.746-.87 3.355-1.084 4.774-.628l-.188.584c-1.223-.393-2.663-.228-4.313.593-1.652.822-3.493 2.294-5.491 4.475l-.452-.414Zm10.058-5.04.092-.289.585.188-.093.29-.584-.189Zm.472-.489-.175.589.175-.589Zm.205.389-.093.288-.584-.188.093-.289.584.188Zm-.294-.099h.001l-.183.587h-.001l.183-.587Zm.294.098-.092.289-.585-.187.092-.289.585.187Z"/></mask><g mask="url(#d)"><circle cx="62.638" cy="62.638" r="62.638" fill="#1B1B1C" transform="scale(-1 1) rotate(-68.02 -15.133 221.09)"/></g><path fill="#0BB01C" d="M151.118 88.008a159.478 159.478 0 0 1-1.948 6.27l-6.881-2.215a165.79 165.79 0 0 0 1.948-6.27l6.881 2.215Zm-3.975-13.973a122.243 122.243 0 0 0 1.688-10.39c1.711-14.788-.423-23.814-5.068-25.307l6.881 2.215c4.645 1.494 6.782 10.526 5.068 25.309a123.105 123.105 0 0 1-1.688 10.39l-6.881-2.217Z"/><path fill="url(#e)" fill-rule="evenodd" d="M113.65 133.047c2.655.799 6.115-.836 10.134-5.227 11.144-12.17 22.358-40.9 25.056-64.177 2.695-23.27-4.15-32.277-15.293-20.107-8.735 9.533-17.51 29.243-22.197 48.524l.538-1.216c-1.125 4.639-1.98 9.241-2.484 13.629l.002.006c-2.365 20.397 3.637 28.286 13.397 17.622l.005-.005.001-.003c-9.76 10.664-15.762 2.775-13.397-17.623 2.358-20.381 12.194-45.577 21.956-56.235 8.158-8.913 13.688-4.86 13.905 8.618l4.143-3.502c.041 2.364-.064 4.973-.326 7.83l-4.103 2.538a87.57 87.57 0 0 1-.221 2.139c-1.692 14.62-7.226 31.706-13.822 44.135l2.117 4.016a91.397 91.397 0 0 1-4.46 7.537l-1.561-4.948c-1.22 1.835-2.457 3.482-3.695 4.901l1.037 5.628v.001c-.203.234-.406.468-.608.689-4.014 4.385-7.471 6.021-10.124 5.23Z" clip-rule="evenodd"/><path stroke="#0500FF" stroke-miterlimit="10" stroke-width=".614" d="m113.557 133.022 6.881 2.216c2.669.859 6.156-.761 10.22-5.199 11.143-12.17 22.357-40.9 25.055-64.177 1.712-14.789-.423-23.815-5.068-25.308l-6.881-2.216c4.645 1.493 6.782 10.525 5.068 25.308-2.698 23.277-13.912 52.007-25.056 64.177-4.063 4.439-7.55 6.058-10.219 5.199Z"/><path stroke="#0500FF" stroke-miterlimit="10" stroke-width=".614" d="M108.488 107.708c2.7-23.272 13.912-52.008 25.058-64.172 11.143-12.17 17.988-3.162 15.293 20.107-2.698 23.277-13.912 52.007-25.055 64.177-11.138 12.168-17.986 3.168-15.288-20.109l-.008-.003Z"/><mask id="f" width="93" height="92" x="42" y="39" maskUnits="userSpaceOnUse" style="mask-type:alpha"><path fill="#44E841" fill-rule="evenodd" d="M43.973 88.387c6.715 24.224 31.345 43.014 55.012 41.982 10.438-.454 18.946-4.687 24.621-11.355l2.073-2.179c8.048-8.456 11.17-21.395 7.223-35.63-6.713-24.215-31.343-43.006-55.015-41.976-9.76.422-17.833 4.15-23.48 10.09l-2.721 2.861a31.174 31.174 0 0 0-5.834 8.23c-3.869 7.79-4.779 17.533-1.884 27.974l.005.003Zm55.095-40.324a60.642 60.642 0 0 1 11.09 7.191l.175.143c9.135 7.495 16.269 17.696 19.43 29.1 2.896 10.446 1.987 20.194-1.883 27.985-.134.274-.272.545-.413.813 4.219-7.92 5.299-17.984 2.301-28.796-4.372-15.771-16.342-29.243-30.7-36.436Z" clip-rule="evenodd"/></mask><g mask="url(#f)"><ellipse cx="90.858" cy="86.321" fill="#E84142" rx="62.532" ry="62.227" transform="rotate(-153.598 90.858 86.32)"/></g><path fill="#fff" fill-rule="evenodd" d="M71.893 85.637c-1.335 3.11 1.216 5.93 4.99 8.536l-2.335 4.03 3.048 1.804 2.273-3.924c.8.474 1.626.946 2.447 1.415l-2.288 3.949 3.045 1.803 2.335-4.028c.666.38 1.32.754 1.952 1.128l-.007.012 4.202 2.49 1.517-2.62s-2.27-1.298-2.214-1.31c-1.234-.73-1.302-1.545-1.13-2.112l2.66-4.59a3.549 3.549 0 0 1-.313-.208l.321.19 3.727-6.43c.236-.281.753-.644 1.616-.135-.023-.05 2.215 1.312 2.215 1.312l2.302-2.571-3.966-2.349c-.448-.265-.89-.532-1.326-.795v-.001l-.842-.507 2.36-4.077-3.044-1.802-2.337 4.032c-.826-.509-1.632-.993-2.422-1.46l2.327-4.013-3.048-1.804-2.357 4.068c-5.26-2.797-9.449-3.882-12.135-.273-2.166 2.905-1.15 5.375 1.431 7.66-2.186-.32-4.03.301-5.003 2.58Zm9.312-6.19c1.618-2.796 7.04.497 9.517 2.002.222.135.42.255.59.356l-3.129 5.4a48.55 48.55 0 0 0-.75-.432c-2.585-1.465-7.882-4.468-6.23-7.326h.002Zm5.049 9.927c-2.067-1.261-6.571-4.009-8.044-1.47-1.505 2.599 2.916 5.091 5.076 6.308.242.137.456.258.63.36l2.838-4.896c-.144-.085-.312-.188-.5-.302Z" clip-rule="evenodd"/><ellipse cx="85.725" cy="87.136" fill="#E84142" rx="42.316" ry="33.864" transform="rotate(-148.396 85.725 87.136)"/><mask id="g" width="81" height="74" x="45" y="50" maskUnits="userSpaceOnUse" style="mask-type:alpha"><ellipse cx="85.725" cy="87.136" fill="#fff" rx="42.316" ry="33.864" transform="rotate(-148.396 85.725 87.136)"/></mask><g fill="#fff" mask="url(#g)"><path d="M69.725 76.432c.144 2.34 1.982 3.47 4.136 2.544l13.561-5.788c2.137-.9 2.01-2.824-.256-4.217L72.79 60.125c-2.298-1.414-4.073-.661-3.913 1.652l.848 14.655Zm1.421 17.501.589 7.857.242 3.362c.192 2.37 2.107 3.549 4.31 2.652l40.397-16.61c2.203-.897 2.018-2.82-.376-4.293l-6.088-3.746-4.173-2.567-.718-.442c-1.984-1.221-5.123-1.638-6.955-.883l-24.212 9.769c-1.765.723-3.133 2.946-3.016 4.901Z"/></g><path fill="url(#h)" fill-rule="evenodd" d="M43.718 88.447c6.69 24.362 31.364 43.223 55.111 42.138 23.753-1.083 37.584-21.704 30.894-46.067-3.153-11.48-10.302-21.741-19.467-29.267l-3.567 4.46a53.68 53.68 0 0 0-3.212-2.438c9.567 6.724 17.165 16.73 20.286 28.096 5.865 21.344-6.262 39.422-27.075 40.373-20.808.955-42.442-15.587-48.302-36.928-5.832-21.225 6.141-39.23 26.753-40.35l-.79-6.065c-23.588 1.223-37.3 21.78-30.637 46.045l.006.003ZM94.916 46.07l-1.71 5.587a50.258 50.258 0 0 1 6.082 2.955l2.553-5.17a57.324 57.324 0 0 0-6.925-3.372Zm-18.684 2.35c-.257.007-.513.016-.768.027l-.023.002.023-.002c.256-.011.512-.02.768-.027Z" clip-rule="evenodd"/><path fill="#1B1B1C" stroke="#0500FF" stroke-width=".609" d="M74.675 41.93c-7.326.333-13.727 2.516-18.883 6.092 5.527-5.17 13.072-8.397 22.061-8.804 23.598-1.076 48.154 17.679 54.807 41.908l.294-.08-.294.08c3.699 13.467 1.08 25.752-5.998 34.182 5.139-8.305 6.671-19.241 3.435-31.022-6.722-24.48-31.512-43.45-55.422-42.355Z"/><path fill="url(#i)" fill-rule="evenodd" d="M108.175 123.176c13.495-5.834 20.265-20.781 15.587-37.807-5.858-21.333-27.491-37.875-48.3-36.92-19.353.88-31.199 16.58-28.047 35.936l60.76 38.791Z" clip-rule="evenodd"/><path stroke="#0500FF" stroke-width=".609" d="M50.632 52.723c14.77-15.814 42.862-13.728 62.764 4.86 19.903 18.587 23.901 46.471 9.132 62.286-14.77 15.814-42.863 13.728-62.765-4.859s-23.9-46.472-9.131-62.287Z"/><mask id="j" width="98" height="66" x="16" y="75" maskUnits="userSpaceOnUse" style="mask-type:alpha"><path fill="#0500FF" fill-rule="evenodd" d="M98.297 137.359c-19.183 7.851-49.723 1.132-68.216-15.008-18.491-16.135-17.92-35.581 1.264-43.432 19.188-7.853 49.728-1.134 68.213 15.003 11.298 9.86 15.483 20.953 12.654 29.883" clip-rule="evenodd"/></mask><g mask="url(#j)"><circle cx="68.399" cy="106.22" r="56.313" fill="#687EE3" transform="rotate(149.975 68.4 106.22)"/></g><path fill="#fff" fill-rule="evenodd" d="M69.726 118.06c4 1.059 5.947-.579 7.117-3.069l5.452 1.789.615-2.025-5.31-1.742c.162-.532.31-1.082.457-1.628l5.344 1.754.615-2.023-5.451-1.79c.118-.443.236-.878.363-1.298l.017.005.85-2.791-3.545-1.163s-.408 1.51-.445 1.471c-.25.819-1.111.831-1.808.687l-6.212-2.038a1.037 1.037 0 0 1-.088.206l.064-.213-8.701-2.857c-.412-.175-1.04-.548-.868-1.122-.046.014.447-1.471.447-1.471l-3.842-1.703-.8 2.635c-.091.297-.186.59-.28.88l-.18.559-5.515-1.809-.615 2.023 5.457 1.791a46.203 46.203 0 0 0-.517 1.608l-5.43-1.783-.616 2.025 5.505 1.807c-.714 3.509-.031 6.353 5.117 8.367 4.147 1.623 6.397 1.031 7.746-.651.625 1.495 2.128 2.796 5.057 3.568v.001Zm-10.93-6.703c-3.783-1.241-2.598-4.839-2.057-6.484.049-.147.092-.279.126-.391l7.307 2.398c-.042.138-.087.307-.137.5-.45 1.72-1.373 5.245-5.24 3.978v-.001Zm8.611-3.049c-.457 1.371-1.454 4.361 1.982 5.489 3.516 1.154 4.27-1.789 4.64-3.226.041-.162.078-.305.113-.42l-6.627-2.175c-.029.095-.066.207-.108.332Z" clip-rule="evenodd"/><ellipse cx="65.195" cy="108.573" fill="#687EE3" rx="25.272" ry="41.742" transform="rotate(108.905 65.195 108.573)"/><path fill="#D2D8EC" d="m51.23 103.791-13.754-4.71 20.26 18.389-6.506-13.679Z"/><path fill="#C4C8D8" d="m72.453 111.06-17.704-6.064 6.506 13.68 11.198-7.616Z"/><path fill="#D0D6EA" d="m92.838 118.041-20.385-6.982-11.198 7.616 31.583-.634Z"/><path fill="#DEE2F6" d="m51.23 103.791-13.754-4.71 27.28-2.109-13.526 6.819Z"/><path fill="#D2D8EC" d="m72.454 111.059-17.704-6.063 13.526-6.819 4.178 12.882Z"/><path fill="#DEE2F6" d="m92.838 118.04-20.385-6.981-4.178-12.882 24.563 19.863Z"/><path fill="url(#k)" fill-rule="evenodd" d="M33.912 121.927c16.205 14.141 42.982 20.034 59.788 13.151h-.001c-8.778 3.594-24.464 4.108-38.188-1.143l17.03-49.336c-13.092-4.37-27.19-4.966-37.521-.739-16.81 6.878-17.31 23.931-1.108 38.067ZM79.68 87.408a158.461 158.461 0 0 0-4.555-1.892 71.96 71.96 0 0 1 4.555 1.892Zm23.758 19.839c.476.866.925 1.762 1.343 2.69l.13.29a27.868 27.868 0 0 0-1.473-2.98Zm-6.475 26.252a28.372 28.372 0 0 0 3.256-2.21 23.217 23.217 0 0 1-3.256 2.21Z" clip-rule="evenodd"/><path fill="#1B1B1C" d="m61.78 76.677 1.948-5.78c-11.022-1.855-21.869-1.26-30.446 2.25-7.325 3-11.938 7.683-13.806 13.232l-1.948 5.78c1.876-5.546 6.486-10.235 13.806-13.232 8.577-3.51 19.427-4.1 30.446-2.25Zm13.41 3.447a81.077 81.077 0 0 1 7.426 3.008l1.948-5.78a82.579 82.579 0 0 0-7.426-3.008l-1.948 5.78Z"/><path fill="url(#l)" fill-rule="evenodd" d="M24.328 82.903c-11.965 9.299-10.143 25.601 5.743 39.465 18.485 16.138 49.025 22.857 68.214 15.003 19.183-7.851 19.755-27.297 1.264-43.432-17.845-15.573-46.905-22.375-66.156-15.78a44.712 44.712 0 0 1 6.666-1.687l2.338 5.277c16.534-3.007 38.413 3.05 52.402 15.26 16.206 14.142 15.71 31.192-1.107 38.067l.008.003c-16.806 6.882-43.583.989-59.788-13.152-8.782-7.662-12.656-16.181-11.687-23.472l-5.414-3.344c.74-4.675 3.249-8.888 7.517-12.209Z" clip-rule="evenodd"/><path fill="#fff" d="M47.731 81.105a56.143 56.143 0 0 1 6.92-.015l-.718-5.323a65.165 65.165 0 0 0-7.83-.008l1.628 5.346Z"/><path stroke="#0500FF" stroke-linecap="round" stroke-linejoin="round" stroke-width=".612" d="m17.524 92.154 1.948-5.78C21.35 80.828 25.96 76.14 33.28 73.142c19.188-7.854 49.728-1.135 68.214 15.003 11.433 9.978 15.58 21.223 12.548 30.21l-1.948 5.78c3.031-8.986-1.112-20.226-12.549-30.21C81.06 77.787 50.52 71.068 31.332 78.922c-7.325 3-11.939 7.684-13.807 13.232Z"/><path stroke="#0500FF" stroke-linecap="round" stroke-linejoin="round" stroke-width=".612" d="M30.07 122.359c18.493 16.14 49.033 22.859 68.216 15.008 19.189-7.853 19.755-27.297 1.261-43.436-18.485-16.138-49.025-22.857-68.213-15.004-19.183 7.851-19.755 27.297-1.265 43.432Z"/><mask id="m" width="101" height="60" x="9" y="118" maskUnits="userSpaceOnUse" style="mask-type:alpha"><path fill="#44E841" fill-rule="evenodd" d="M100.829 154.288c-15.117 14.161-45.389 24.301-67.602 22.656-12.032-.891-19.234-5.059-20.905-10.943l-1.984-6.404c-1.55-5.014.967-11.307 7.997-17.889 15.122-14.157 45.392-24.305 67.601-22.655 11.882.88 19.055 4.959 20.839 10.729l1.983 6.398c1.693 5.05-.796 11.43-7.929 18.108Zm-10.2-28.36a55.653 55.653 0 0 0-2.642-.257c-15.075-1.117-33.861 3.195-49.103 10.507 15.242-7.312 34.028-11.623 49.103-10.507.908.067 1.788.153 2.641.257Zm-63.91 17.292c-2.318 1.629-4.444 3.336-6.334 5.106 1.89-1.77 4.016-3.477 6.334-5.106Z" clip-rule="evenodd"/><path fill="#44E841" d="m33.227 176.944.022-.297-.022.297Zm67.602-22.656-.204-.217.204.217Zm-88.507 11.713.286-.082-.002-.006-.284.088Zm-1.984-6.404-.284.088.284-.088Zm7.997-17.889-.203-.217.203.217Zm67.601-22.655-.022.297.022-.297Zm20.839 10.729-.284.088.284-.088Zm1.983 6.398-.285.088.002.007.283-.095Zm-18.13-10.252-.036.295a.297.297 0 1 0 .072-.59l-.036.295Zm-2.641-.257.022-.297-.022.297ZM38.755 135.91a.297.297 0 1 0 .257.536l-.257-.536Zm49.232-10.239-.022.297.022-.297ZM26.89 143.463a.297.297 0 1 0-.342-.487l.342.487Zm-6.505 4.863-.203-.217a.299.299 0 0 0-.053.065l.256.152Zm0 0-.256-.152a.298.298 0 0 0 .46.369l-.204-.217Zm12.82 28.915c11.156.826 24.317-1.307 36.578-5.415 12.26-4.108 23.65-10.202 31.249-17.32l-.407-.435c-7.517 7.042-18.822 13.099-31.03 17.19-12.208 4.091-25.289 6.205-36.346 5.386l-.044.594Zm-21.17-11.159c.864 3.039 3.15 5.609 6.713 7.525 3.562 1.915 8.415 3.186 14.457 3.634l.044-.594c-5.99-.443-10.754-1.701-14.219-3.564-3.463-1.862-5.614-4.319-6.422-7.164l-.572.163Zm.571-.169-1.984-6.404-.568.176 1.984 6.404.568-.176Zm-1.984-6.404c-1.499-4.846.912-11.026 7.916-17.583l-.406-.435c-7.056 6.606-9.681 13.012-8.078 18.194l.568-.176Zm7.916-17.583c7.52-7.041 18.826-13.099 31.034-17.191 12.207-4.092 25.287-6.207 36.342-5.385l.044-.594c-11.154-.829-24.314 1.305-36.575 5.415-12.26 4.109-23.65 10.203-31.251 17.32l.406.435Zm67.376-22.576c5.915.438 10.635 1.671 14.089 3.497 3.452 1.824 5.625 4.232 6.488 7.023l.569-.176c-.922-2.98-3.228-5.497-6.779-7.374-3.549-1.876-8.356-3.122-14.323-3.564l-.044.594Zm20.577 10.52 1.982 6.398.569-.176-1.983-6.398-.568.176Zm-5.459 24.636c7.159-6.703 9.758-13.2 8.008-18.42l-.565.189c1.637 4.878-.741 11.141-7.85 17.796l.407.435Zm-10.368-28.873a56.283 56.283 0 0 0-2.655-.259l-.044.593c.903.067 1.78.153 2.627.256l.072-.59Zm-2.655-.259c-15.138-1.121-33.976 3.206-49.254 10.536l.257.536c15.207-7.295 33.94-11.59 48.953-10.479l.044-.593Zm0 0c-15.138-1.121-33.976 3.206-49.254 10.536l.257.536c15.207-7.295 33.94-11.59 48.953-10.478l.044-.594Zm2.655.259a56.287 56.287 0 0 0-2.655-.259l-.044.594c.903.066 1.78.152 2.627.255l.072-.59Zm-64.116 17.343c-2.328 1.636-4.465 3.352-6.366 5.133l.407.434c1.878-1.759 3.993-3.458 6.301-5.08l-.342-.487Zm-6.419 5.198.512.304-.512-.304Zm6.419-5.198c-2.328 1.636-4.465 3.352-6.366 5.133l.407.434c1.878-1.759 3.993-3.458 6.301-5.08l-.342-.487Z"/></mask><g mask="url(#m)"><circle cx="59.87" cy="147.829" r="60.506" fill="#E6007A" transform="rotate(-149.293 59.87 147.829)"/></g><path fill="#fff" fill-rule="evenodd" d="M50.768 159.574c.955 1.52 4.462 1.03 8.698-.125l.813 2.269 3.239-1.017-.791-2.208c.85-.267 1.718-.547 2.58-.825l.795 2.223 3.237-1.015-.811-2.268c.699-.226 1.385-.448 2.057-.658l.003.007 4.466-1.401-.529-1.474s-2.384.769-2.351.738c-1.312.411-1.856.221-2.08-.021l-.925-2.584c-.091.028-.21.063-.346.097l.341-.107-1.295-3.621c-.005-.194.137-.551 1.053-.839-.047-.002 2.354-.738 2.354-.738l.053-1.851-4.215 1.322c-.476.149-.948.295-1.415.439l-.9.278-.824-2.294-3.235 1.014.812 2.271c-.89.27-1.75.536-2.59.8l-.807-2.26-3.239 1.015.82 2.291c-5.397 1.841-8.999 3.621-8.69 5.948.247 1.876 2.463 2.052 5.667 1.4-1.73.997-2.648 2.083-1.944 3.194h-.001Zm2.774-6.327c-.565-1.573 5.247-3.357 7.903-4.173l.631-.194 1.088 3.04c-.22.069-.488.156-.79.254-2.707.879-8.255 2.681-8.833 1.074v-.001Zm9.587.228c-2.22.679-7.055 2.158-6.544 3.588.523 1.463 5.145-.045 7.403-.781.254-.083.478-.156.662-.214l-.987-2.758-.534.165Z" clip-rule="evenodd"/><ellipse cx="61.397" cy="153.121" fill="#E6007A" rx="40.557" ry="17.508" transform="rotate(163.113 61.397 153.121)"/><path fill="#fff" d="M63.479 159.977c-5.45 1.655-9.531 4.106-9.116 5.475.416 1.368 5.17 1.137 10.62-.517 5.45-1.655 9.532-4.106 9.116-5.475-.415-1.369-5.17-1.137-10.62.517Zm-5.667-18.669c-5.45 1.655-9.531 4.106-9.116 5.475.416 1.369 5.17 1.137 10.62-.517 5.45-1.655 9.532-4.106 9.116-5.475-.415-1.369-5.17-1.137-10.62.517Zm18.38 11.066c-2.107 2.865-1.42 5.066 1.534 4.917 2.954-.149 7.057-2.592 9.163-5.457 2.107-2.865 1.42-5.066-1.535-4.917-2.954.149-7.056 2.593-9.162 5.457Zm-40.286 2.035c-2.107 2.865-1.42 5.066 1.534 4.917 2.954-.15 7.057-2.593 9.163-5.457 2.106-2.865 1.42-5.066-1.535-4.917-2.954.149-7.056 2.592-9.162 5.457Zm36.747-13.831c-2.538 1.518-1.885 3.73 1.458 4.94 3.343 1.21 8.112.961 10.65-.557 2.539-1.518 1.886-3.73-1.457-4.94-3.344-1.211-8.112-.961-10.65.557Zm-34.619 20.704c-2.538 1.518-1.886 3.73 1.458 4.94 3.343 1.211 8.112.961 10.65-.557 2.538-1.518 1.886-3.73-1.458-4.94-3.343-1.211-8.111-.961-10.65.557Z"/><path fill="#1B1B1C" fill-rule="evenodd" d="M27.786 142.255a79.296 79.296 0 0 1 3.43-2.163l-2.074-6.693a93.839 93.839 0 0 1 7.358-3.946l2.075 6.699c15.458-7.435 34.535-11.823 49.837-10.689 12.029.89 19.293 5.018 21.106 10.858l-2.074-6.694c-1.807-5.845-9.073-9.977-21.11-10.868-22.456-1.669-53.048 8.57-68.394 22.871 2.278-2.121 4.898-4.153 7.772-6.07l2.074 6.695Zm-15.981 24.194.024.078a9.797 9.797 0 0 1-.15-.536c-1.236-4.983 1.383-11.147 8.253-17.579l.058-.054-.058.055c-6.87 6.431-9.486 12.591-8.252 17.578.038.154.08.306.125.458Z" clip-rule="evenodd"/><path fill="url(#n)" d="M32.941 177.402c22.502 1.666 53.167-8.605 68.48-22.95 15.319-14.342 9.493-27.323-13.009-28.989-22.501-1.667-53.166 8.605-68.48 22.95-15.318 14.341-9.492 27.323 13.01 28.989Zm-7.495-27.082c13.419-12.566 40.305-21.575 60.018-20.116 19.713 1.459 24.827 12.841 11.4 25.409-13.419 12.566-40.304 21.575-60.018 20.116-19.713-1.459-24.827-12.841-11.4-25.409Z"/><path fill="url(#o)" d="M93.231 131.486c13.04 3.583 15.068 13.427 3.63 24.132-3.616 3.389-8.213 6.511-13.383 9.249l2.574.198c5.941-3.133 11.223-6.716 15.371-10.605 13.032-12.2 10.752-23.414-4.067-27.517l-4.128 4.548.003-.005Z"/><path fill="#fff" d="M68.358 131.176a83.629 83.629 0 0 1 8.014-.953l1.733-4.75c-2.996.205-6.059.57-9.157 1.083l-.59 4.62Z"/><path stroke="#0500FF" stroke-linecap="round" stroke-linejoin="round" stroke-width=".595" d="m11.832 166.534-2.077-6.704c-1.571-5.08.98-11.454 8.1-18.121 15.32-14.342 45.982-24.622 68.48-22.95 12.036.891 19.303 5.023 21.11 10.868l2.077 6.704c-1.808-5.845-9.074-9.977-21.11-10.868-22.501-1.667-53.166 8.605-68.48 22.95-7.12 6.667-9.674 13.046-8.1 18.121Z"/><path stroke="#0500FF" stroke-linecap="round" stroke-linejoin="round" stroke-width=".595" d="M32.941 177.402c22.502 1.666 53.167-8.605 68.48-22.95 15.319-14.342 9.493-27.323-13.009-28.989-22.501-1.667-53.166 8.605-68.48 22.95-15.318 14.341-9.492 27.323 13.01 28.989Z"/><path fill="url(#p)" fill-rule="evenodd" d="M36.846 175.729c19.713 1.459 46.599-7.55 60.017-20.116 13.428-12.568 8.314-23.95-11.4-25.409-16.524-1.223-38.088 4.909-52.535 14.326 3.75-2.444 7.981-4.666 12.477-6.597l-19.136 35.588c-10.467-4.165-11.386-13.314-.823-23.201-13.428 12.568-8.314 23.951 11.4 25.409Z" clip-rule="evenodd"/><mask id="q" width="83" height="83" x="38" y="134" maskUnits="userSpaceOnUse" style="mask-type:alpha"><path fill="#44E841" fill-rule="evenodd" d="m44.917 193.577.003-.006c6.856-19.363 28.871-42.118 49.152-50.819 10.851-4.659 19.009-4.347 23.203-.086l-4.805-4.885c-4.194-4.262-12.355-4.568-23.203.086-20.28 8.701-42.287 31.453-49.152 50.819-3.187 9.006-2.545 15.693 1.098 19.397l4.567 4.643c4.118 4.492 12.381 4.903 23.439.162 20.28-8.701 42.296-31.456 49.152-50.819 6.866-19.366-4.015-28.009-24.301-19.311-20.281 8.701-42.296 31.456-49.152 50.819Z" clip-rule="evenodd"/></mask><g mask="url(#q)"><ellipse cx="77.418" cy="176.033" fill="#F6921A" rx="56.123" ry="42.677" transform="rotate(-62.866 77.418 176.033)"/></g><path fill="#fff" fill-rule="evenodd" d="M91.69 178.755c2.98-2.874 2.91-4.959 1.805-6.692l4.306-3.807-1.087-1.139-4.193 3.706c-.285-.299-.59-.593-.895-.885l4.22-3.731-1.085-1.139-4.305 3.806a23.67 23.67 0 0 1-.714-.706l.013-.012-1.497-1.572-2.8 2.475s.84.809.791.826c.44.462-.033 1.157-.523 1.671l-4.906 4.337a.57.57 0 0 1 .097.136l-.115-.119-6.873 6.075c-.353.275-.968.66-1.276.339-.016.041-.79-.829-.79-.829l-3.346 2.542 1.414 1.483c.16.168.313.337.466.505l.294.322-4.355 3.852 1.085 1.138 4.31-3.809c.282.325.565.633.847.927l-4.29 3.792 1.087 1.139 4.348-3.843c2.079 1.692 4.468 2.052 8.763-1.44 3.46-2.811 4.298-4.807 3.862-6.426 1.405-.025 3.163-.817 5.342-2.922Zm-10.831 6.638c-2.987 2.641-4.867.543-5.726-.416a14.201 14.201 0 0 0-.206-.227l5.77-5.101c.074.078.17.168.277.27.963.91 2.937 2.775-.115 5.474Zm2.652-7.886c.713.805 2.268 2.559 4.982.159 2.777-2.454 1.12-3.999.31-4.753-.09-.085-.17-.16-.232-.225l-5.234 4.627c.051.053.11.119.174.192Z" clip-rule="evenodd"/><path fill="#F6921A" d="M86.779 199.763c-18.583 12.806-35.55 13.99-37.936 2.75-2.387-11.24 10.77-30.775 29.306-43.541 18.583-12.806 35.531-14.01 37.936-2.749 2.358 11.301-10.77 30.774-29.306 43.54Z"/><path fill="#fff" d="M92.495 181.449c4.438-3.371 5.44-6.741 5.27-10.049l6.241-4.31-.459-2.322-6.101 4.188c-.13-.622-.308-1.204-.42-1.805l6.147-4.228-.46-2.322-6.24 4.309c-.105-.498-.256-.955-.342-1.431l-.643-3.193-4.052 2.778s.394 1.68.376 1.659c.173.954-.605 1.849-1.37 2.476l-7.126 4.892c-.01.082.045.145.053.249.01-.083-.045-.146-.053-.249l-9.994 6.866c-.493.28-1.31.658-1.459.015-.028.061-.376-1.66-.376-1.66l-4.641 2.665.645 3.007c.094.58.235 1.12.31 1.679l-6.305 4.329.46 2.322 6.24-4.31c.085.663.215 1.285.374 1.846l-6.194 4.268.46 2.322 6.306-4.328c1.19 3.636 3.386 5.225 9.436 1.45 4.876-3.053 6.732-5.912 7.165-8.714 1.34.603 3.489.063 6.752-2.399Zm-14.204 6.067c-4.713 3.241-5.2-2.035-5.568-3.591l8.355-5.738c.368 1.556 2.131 5.946-2.787 9.329Zm11.575-9.193c-4.303 2.96-4.643-1.488-4.941-2.774l7.582-5.215c.298 1.287 1.867 4.889-2.64 7.989Z"/><path fill="#1B1B1C" d="M44.913 193.568c1.029-2.909 2.403-5.886 4.062-8.883l-4.805-4.886c-1.653 3.001-3.03 5.984-4.062 8.883-3.192 9.004-2.544 15.693 1.098 19.397l4.805 4.886c-3.643-3.704-4.285-10.391-1.098-19.397Zm5.875-23.938a89.587 89.587 0 0 0-4.616 6.74l4.805 4.885a93.881 93.881 0 0 1 4.616-6.74l-4.805-4.885Z"/><path fill="url(#r)" d="M114.935 165.139c-6.009 16.962-25.31 36.913-43.076 44.538-17.767 7.624-27.309.043-21.297-16.925 6.01-16.962 25.31-36.913 43.076-44.537 17.767-7.625 27.309-.044 21.297 16.924Z"/><path fill="url(#s)" fill-rule="evenodd" d="M69.22 212.888c17.316-7.429 35.895-25.103 45.226-42.164a83.885 83.885 0 0 1-4.657 7.487l-2.316.993c-8.836 12.755-22.633 24.904-35.612 30.473-17.767 7.625-27.309.044-21.297-16.924 4.39-12.391 15.87-26.376 28.666-35.986l-1.56-4.267a93.07 93.07 0 0 1 7.462-5.072l.624 4.898c2.63-1.604 5.273-2.99 7.884-4.111 2.63-1.129 5.08-1.924 7.327-2.405l1.54-5.802c5.732-1.219 10.295-.638 13.382 1.5-4.477-3.105-12.059-2.934-21.819 1.25-20.28 8.701-42.295 31.456-49.152 50.819-6.865 19.366 4.015 28.009 24.302 19.311Zm47.06-52.548Z" clip-rule="evenodd"/><path fill="url(#t)" fill-rule="evenodd" d="m45.838 212.784.18.183a9.983 9.983 0 0 1-1.942-2.833c.46 1 1.05 1.885 1.762 2.65Zm3.136-28.1a78.199 78.199 0 0 1 2.007-3.424l-4.797-4.878a89.585 89.585 0 0 1 4.615-6.74l4.8 4.88c10.083-13.432 24.68-25.852 38.474-31.77 10.851-4.659 19.009-4.348 23.203-.086l-4.805-4.886c-4.194-4.261-12.355-4.567-23.203.086-20.28 8.701-42.287 31.454-49.152 50.819-2.189 6.186-2.572 11.277-1.416 15.059-1.154-3.782-.772-8.871 1.42-15.05 1.03-2.899 2.408-5.882 4.061-8.883l4.793 4.873Z" clip-rule="evenodd"/><path stroke="#0500FF" stroke-linecap="round" stroke-linejoin="round" stroke-width=".585" d="m46.018 212.968-4.805-4.885c-3.643-3.704-4.285-10.391-1.098-19.397 6.865-19.366 28.871-42.118 49.152-50.819 10.848-4.654 19.009-4.348 23.204-.086l4.804 4.885c-4.194-4.261-12.352-4.573-23.203.086-20.28 8.701-42.296 31.456-49.152 50.819-3.193 9.003-2.545 15.693 1.098 19.397Z"/><path stroke="#0500FF" stroke-linecap="round" stroke-linejoin="round" stroke-width=".585" d="M69.22 212.888c20.28-8.701 42.295-31.456 49.152-50.819 6.865-19.366-4.015-28.009-24.302-19.311-20.28 8.701-42.295 31.456-49.152 50.819-6.865 19.366 4.015 28.009 24.302 19.311Z"/><mask id="u" width="51" height="112" x="103" y="135" maskUnits="userSpaceOnUse" style="mask-type:alpha"><path fill="#44E841" fill-rule="evenodd" d="m119.783 136.222-7.814 1.895c-2.832.686-4.98 3.635-6.338 8.35-1.365 4.741-1.97 11.383-1.625 19.681.546 13.066 3.348 27.815 7.437 41.102 4.087 13.281 9.469 25.137 15.195 32.398 2.089 2.649 4.091 4.52 5.973 5.636 1.884 1.118 3.67 1.49 5.299 1.095l-.072-.297.072.297 7.815-1.895.006-.001-.072-.297-.001-.002-.009-.037-.001-.004c5.274-1.288 8.384-11.132 7.693-27.681l.009-.003c-1.091-26.057-11.184-58.877-22.561-73.295-4.146-5.258-7.889-7.345-10.919-6.612v-.002l-.08-.329-.007.001Z" clip-rule="evenodd"/><path fill="#44E841" d="m111.969 138.117.071.338.011-.003-.082-.335Zm7.814-1.895.082.336-.082-.336Zm-7.814 1.895-.071-.338-.01.003.081.335Zm-6.338 8.35-.331-.095.331.095Zm-1.625 19.681.345-.014-.345.014Zm0 0-.345.014v.001l.345-.015Zm7.437 41.102-.33.102.33-.102Zm15.195 32.398.271-.213-.271.213Zm5.973 5.636-.176.297.176-.297Zm5.299 1.095.081.335.335-.081-.081-.335-.335.081Zm-.072-.297.335-.081-.671.162.336-.081Zm.072.297-.336.081.082.335.335-.081-.081-.335Zm7.815-1.895-.081-.335.081.335Zm.006-.001.081.335.335-.081-.081-.336-.335.082Zm-.072-.297-.336.08.001.001.335-.081Zm-.001-.002.336-.081h-.001l-.335.081Zm-.009-.037-.335.082.335-.082Zm-.001-.004-.081-.335-.335.082.081.335.335-.082Zm7.693-27.681-.111-.327-.244.084.011.257.344-.014Zm.009-.003.112.326.244-.083-.011-.258-.345.015Zm-22.561-73.295-.271.213v.001l.271-.214Zm-10.919-6.612-.335.081.081.335.336-.081-.082-.335Zm0-.002.335-.081-.335.081Zm-.08-.329.335-.081-.081-.336-.335.082.081.335Zm-7.739 2.231 7.814-1.894-.163-.671-7.814 1.895.163.67Zm-.011.003v-.001l-.142-.674.142.675Zm-6.077 8.108c1.351-4.691 3.448-7.472 6.087-8.111l-.162-.67c-3.024.732-5.223 3.85-6.588 8.59l.663.191Zm-1.612 19.571c-.345-8.279.26-14.88 1.612-19.571l-.663-.191c-1.38 4.79-1.984 11.473-1.639 19.79l.69-.028Zm0 0-.69.028.69-.028Zm7.421 41.015c-4.081-13.265-6.877-27.984-7.421-41.015l-.69.029c.547 13.1 3.356 27.878 7.452 41.189l.659-.203Zm15.137 32.286c-5.687-7.212-11.055-19.022-15.137-32.286l-.659.203c4.092 13.297 9.49 25.2 15.254 32.51l.542-.427Zm5.877 5.552c-1.832-1.086-3.803-2.922-5.877-5.552l-.542.427c2.104 2.667 4.136 4.573 6.068 5.719l.351-.594Zm5.042 1.057c-1.516.367-3.209.03-5.042-1.057l-.351.594c1.936 1.148 3.815 1.555 5.556 1.133l-.163-.67Zm-.326.119.072.297.671-.162-.072-.297-.671.162Zm.743.135-.072-.297-.671.162.072.297.671-.162Zm7.399-2.149-7.816 1.895.163.67 7.815-1.895-.162-.67Zm.006-.002-.006.002.162.67.006-.001-.162-.671Zm-.326.12.072.297.67-.163-.072-.297-.67.163Zm-.001-.002v.001l.671-.161v-.002l-.671.162Zm-.009-.036.009.036.67-.162-.008-.037-.671.163Zm-.001-.004.001.004.671-.163-.001-.004-.671.163Zm.417.253c2.829-.691 4.975-3.642 6.333-8.357 1.365-4.74 1.969-11.38 1.623-19.674l-.689.029c.344 8.256-.261 14.813-1.597 19.454-1.343 4.666-3.388 7.281-5.833 7.878l.163.67Zm7.722-27.69.01-.003-.223-.653-.009.003.222.653Zm.243-.344c-.547-13.063-3.35-27.811-7.438-41.099-4.087-13.281-9.47-25.137-15.197-32.395l-.542.428c5.65 7.16 11.003 18.922 15.079 32.17 4.075 13.241 6.865 27.931 7.409 40.925l.689-.029ZM131.06 142.95c-2.088-2.647-4.091-4.518-5.973-5.635-1.885-1.118-3.67-1.492-5.298-1.098l.163.67c1.402-.339 3.002-.035 4.783 1.021 1.783 1.058 3.725 2.859 5.783 5.469l.542-.427Zm-11.525-6.32v.003l.671-.162-.001-.002-.67.161Zm-.08-.328.08.329.67-.162-.08-.329-.67.162Zm.41.256.007-.002-.163-.67-.007.001.163.671Z"/></mask><g mask="url(#u)"><circle cx="127.183" cy="194.288" r="70.384" fill="#F0B90B" transform="rotate(-63.8 127.183 194.288)"/></g><path fill="#fff" fill-rule="evenodd" d="M135.919 181.792c-1.116-4.236-2.533-5.341-3.996-5.336l-1.38-5.927-1.06.321 1.344 5.771c-.278.084-.558.189-.837.293l-1.352-5.809-1.059.32 1.379 5.926c-.226.085-.447.168-.667.235l-.004-.019-1.462.44.898 3.854s.77-.288.769-.235c.429-.129.766.677.977 1.397l1.573 6.752a.27.27 0 0 1 .118-.008l-.112.034 2.203 9.46c.088.465.179 1.222-.12 1.315.023.037-.771.232-.771.232l.794 4.373 1.379-.417c.156-.046.311-.087.465-.128.1-.026.199-.052.296-.079l1.397 5.995 1.059-.319-1.382-5.932c.296-.067.579-.144.853-.228l1.374 5.904 1.06-.32-1.393-5.985c1.7-.886 2.591-2.791 1.419-8.533-.943-4.624-2.053-6.479-3.257-7.001.366-1.253.313-3.246-.505-6.346Zm1.503 13.266c.957 4.112-.961 4.595-1.838 4.815-.078.02-.149.038-.208.056l-1.849-7.943c.072-.022.158-.055.256-.093.872-.34 2.659-1.038 3.639 3.165Zm-4.566-6.752c.734-.179 2.333-.568 1.463-4.304-.89-3.822-2.376-3.225-3.102-2.934-.082.033-.154.062-.214.08l1.677 7.204c.05-.015.11-.03.176-.046Z" clip-rule="evenodd"/><ellipse cx="133.818" cy="190.271" fill="#F0B90B" rx="13.195" ry="44.271" transform="rotate(-12.747 133.818 190.271)"/><path fill="#fff" d="m124.738 171.433 2.53-9.88 6.536 7.829-.927 3.647-4.129-4.934-1.604 6.231-2.406-2.893Zm11.592 9.114-2.406-2.893-1.604 6.231-4.13-4.935-.926 3.648 1.479 6.542 4.13 4.934 2.526 11.166 2.406 2.894.927-3.648-2.526-11.166 1.604-6.231-1.48-6.542Zm4.006 17.708-1.48-6.542-.927 3.648 1.48 6.541.927-3.647Zm1.706 2.044-1.603 6.231 1.479 6.542 2.531-9.879-4.006-17.708-.927 3.648 2.526 11.166Zm-7.458-25.225 2.406 2.893 1.48 6.542.927-3.648-1.48-6.541-2.406-2.894-.927 3.648Zm1.874 34.847 1.48 6.541 2.406 2.894.927-3.648-1.48-6.541-.927 3.647-2.406-2.893Zm-5.189-9.615 2.407 2.893-1.48-6.541-2.407-2.894 1.48 6.542Zm-2.402-23.939 2.407 2.894.926-3.648-2.406-2.894-.927 3.648Zm-3.31 4.187.927-3.648-2.407-2.894-.926 3.648 1.479 6.542 2.407 2.893-1.48-6.541Zm2.526 11.166-2.406-2.894 4.005 17.707 6.536 7.828-1.479-6.541-4.13-4.935-2.526-11.165Z"/><path fill="#1B1B1C" d="M106.972 190.927a181.204 181.204 0 0 0 1.664 7.188l7.895-1.915a184.209 184.209 0 0 1-1.664-7.187l-7.895 1.914Zm5.609-15.33c-.519-4.021-.873-7.969-1.032-11.782-.695-16.714 2.443-26.652 7.772-27.942l-7.895 1.914c-5.329 1.29-8.47 11.234-7.772 27.942.162 3.807.514 7.761 1.032 11.782l7.895-1.914Z"/><path fill="url(#v)" fill-rule="evenodd" d="m139.791 160.638.001.001.003-.006-.004.005Zm-22.667 18.494c2.919 20.191 10.46 41.812 18.762 52.336 10.056 12.757 17.434 4.413 16.471-18.641-.958-23.035-9.896-52.084-19.955-64.834l-.003-.01c-4.4-5.582-8.288-7.122-11.189-5.159 2.9-1.957 6.785-.414 11.185 5.165 2.578 3.27 5.081 7.613 7.396 12.649l-20.062 32.091a156.805 156.805 0 0 1-2.605-13.597Z" clip-rule="evenodd"/><path fill="url(#w)" fill-rule="evenodd" d="M145.235 244.498c-3.041.674-6.783-1.444-10.924-6.696-11.481-14.56-21.672-47.683-22.77-73.991-1.096-26.299 7.319-35.827 18.8-21.268 9.001 11.407 17.206 34.224 20.864 56.221l-.505-1.414c.876 5.291 1.454 10.519 1.656 15.478l-.003.006c.964 23.053-6.415 31.398-16.471 18.641l-.002-.003-.002-.007c10.056 12.757 17.434 4.412 16.471-18.641-.958-23.035-9.896-52.084-19.955-64.835-8.405-10.663-14.938-6.577-16.295 8.508l-4.352-4.267c-.242 2.646-.34 5.578-.283 8.802l4.388 3.183-.002-.085c.013.813.038 1.646.073 2.5.687 16.525 5.476 36.129 11.839 50.603l-2.704 4.325c1.402 3.178 2.867 6.132 4.374 8.815l2.159-5.416c1.215 2.157 2.465 4.104 3.735 5.796l-1.628 6.223v.001c.208.279.416.559.624.823 4.135 5.245 7.874 7.365 10.913 6.698Z" clip-rule="evenodd"/><path fill="url(#x)" fill-rule="evenodd" d="M111.542 163.811c.159 3.814.514 7.762 1.032 11.782l-7.894 1.914c3.051 23.732 11.926 49.761 21.745 62.213 4.187 5.31 7.961 7.413 11.023 6.671l7.894-1.914c-3.061.742-6.836-1.362-11.022-6.671-7.004-8.882-13.527-24.672-17.8-41.609l-7.891 1.914a177.746 177.746 0 0 1-1.664-7.188l7.893-1.914c-1.798-8.552-2.974-17.189-3.309-25.194-.697-16.704 2.443-26.648 7.769-27.941l-.227.055c-5.193 1.511-8.234 11.403-7.549 27.882Z" clip-rule="evenodd"/><path stroke="#0500FF" stroke-miterlimit="10" stroke-width=".69" d="m145.343 244.477-7.895 1.914c-3.062.742-6.836-1.361-11.022-6.671-11.482-14.56-21.673-47.683-22.771-73.991-.695-16.714 2.443-26.652 7.772-27.942l7.895-1.914c-5.329 1.29-8.47 11.234-7.772 27.942 1.098 26.308 11.289 59.431 22.77 73.991 4.187 5.31 7.961 7.413 11.023 6.671Z"/><path stroke="#0500FF" stroke-miterlimit="10" stroke-width=".69" d="M153.115 216.528c-1.101-26.302-11.289-59.431-22.774-73.985-11.481-14.559-19.896-5.031-18.8 21.268 1.098 26.308 11.289 59.431 22.77 73.991 11.475 14.556 19.893 5.037 18.795-21.271l.009-.003Z"/><mask id="y" width="101" height="108" x="114" y="107" maskUnits="userSpaceOnUse" style="mask-type:alpha"><path fill="#44E841" stroke="#44E841" stroke-miterlimit="10" stroke-width=".698" d="M207.93 176.945c-1.408-1.344-2.825-2.692-4.233-4.036.236.227.463.45.68.663-2.236-2.239-5.68-5.081-10.299-8.435-16.577-12.019-42.062-26.061-56.902-31.35a59.29 59.29 0 0 0-3.561-1.152c.071.023.137.034.208.056l-5.626-1.638c-12.74-3.71-9.963 2.566 7.391 15.151 18.916 13.719 47.981 29.734 64.935 35.777 12.679 4.517 14.976 2.173 7.413-5.039l-.006.003Z"/><path fill="#44E841" stroke="#44E841" stroke-miterlimit="10" stroke-width=".698" d="m212.105 183.54-4.005 6.921c-.774 1.338-4.608.932-11.588-1.557-16.947-6.044-46.019-22.057-64.935-35.777-11.122-8.072-16.255-13.547-15.145-15.459l3.998-6.918c-1.109 1.912 4.026 7.393 15.152 15.457 18.916 13.72 47.982 29.735 64.935 35.777 6.98 2.488 10.814 2.895 11.588 1.556Z"/></mask><g mask="url(#y)"><circle cx="162.512" cy="155.765" r="73.738" fill="#2D374B" transform="rotate(-19.982 162.512 155.765)"/></g><path fill="#fff" fill-rule="evenodd" d="M156.821 150.631c.139.72 3.149 2.705 7.016 5.04l-.283.718 3.012 1.772.276-.7c.79.465 1.6.939 2.405 1.409l-.278.704 3.009 1.77.285-.718 1.918 1.124-.001.002 4.153 2.443.184-.468s-2.226-1.301-2.187-1.285c-1.22-.718-1.577-1.054-1.656-1.211l.323-.818c-.085-.05-.194-.115-.317-.19l.317.186.454-1.145c.076-.025.336.019 1.189.52a399.512 399.512 0 0 1 2.188 1.287l.805-.17-3.92-2.305-1.314-.775-.835-.492.286-.728-3.008-1.769-.285.719c-.824-.488-1.623-.959-2.403-1.418l.284-.715-3.011-1.771-.288.725c-5.079-2.935-8.696-4.834-9.407-4.402-.574.347 1.128 1.654 3.962 3.444-1.797-.897-2.978-1.311-2.872-.782l-.001-.001Zm4.826.925c.196-.499 5.584 2.683 8.046 4.138l.586.345-.381.962-.737-.431c-2.53-1.477-7.714-4.504-7.515-5.015l.001.001Zm7.583 5.594c-2.056-1.215-6.538-3.864-6.717-3.412-.184.463 4.138 2.984 6.249 4.216l.619.361.345-.873-.496-.292Z" clip-rule="evenodd"/><ellipse cx="167.989" cy="156.104" fill="#2D374B" rx="41.747" ry="5.548" transform="rotate(-149.378 167.989 156.104)"/><path fill="#2D374B" d="m162.437 153.18-3.893-1.258-8.124-7.397.213-.37-1.468 2.548c-.015.075.199.278.574.545l15.914 11.141c.375.256.87.548 1.274.753l.156.076.061.03 16.917 8.331.065.033c.084.043.169.085.25.123.324.153.554.23.648.221a.076.076 0 0 0 .034-.011l1.195-2.077-9.675-3.328c-1.225-.407-3.636-1.732-5.829-3.036l-2.572-1.534 17.102 5.752-1.709-1.197-17.363-5.726-6.795-4.018 17.374 5.618-6.099-4.269-.729-.51a12.141 12.141 0 0 0-1.027-.612l-17.673-8.703 3.378 1.664 7.801 7.211Zm.174-3.284 5.656 5.165-4.464-1.443-7.423-6.791 6.231 3.069Z"/><path fill="#28A0F0" d="m168.266 155.061-5.655-5.165-6.232-3.069 7.423 6.79 4.464 1.444Zm-17.633-10.906-.214.37 8.125 7.397 3.893 1.259-7.801-7.212-3.379-1.664c-.337-.153-.558-.217-.611-.174l-.013.024Z"/><path fill="#fff" d="m189.635 166.773-4.357-3.051-17.102-5.752 2.573 1.534c2.193 1.304 4.604 2.629 5.829 3.036l9.675 3.328 3.252 1.125.13-.22Zm-30.224-13.992 6.795 4.018 17.363 5.726-5.128-3.59-1.656-.536-17.374-5.618Z"/><path fill="#96BEDC" d="M146.264 145.005c-.055.223.612.851 1.757 1.665l16.123 11.286a36.685 36.685 0 0 0 3.874 2.294 84614.51 84614.51 0 0 0 17.848 8.788c1.136.534 1.886.763 2.057.628l1.582-2.673-3.252-1.125-1.195 2.078a.091.091 0 0 1-.034.01c-.094.009-.324-.068-.648-.22-.081-.038-17.394-8.567-17.449-8.594-.405-.205-.9-.497-1.274-.753l-15.915-11.141c-.374-.267-.588-.47-.573-.545l1.512-2.554c.052-.043.243.003.58.156l3.379 1.664 1.744.859 6.231 3.068 6.32 3.112c.335.178.715.404 1.027.612l6.828 4.78 1.655.535-6.135-4.296-.532-.371-.443-.308a33.67 33.67 0 0 0-1.679-1.056 34.577 34.577 0 0 0-1.596-.892l-18.355-9.04c-1.069-.493-1.755-.688-1.908-.55l-1.529 2.583Z"/><path fill="url(#z)" d="M137.273 133.661c14.933 5.322 40.584 19.45 57.259 31.547 16.681 12.094 18.088 17.585 3.146 12.259-14.941-5.326-40.592-19.454-57.261-31.553-16.684-12.086-18.094-17.583-3.144-12.253Z"/><path fill="url(#A)" fill-rule="evenodd" d="M204.323 173.136Zm7.688 11.121c-1.515.618-5.165-.017-10.999-2.096-17.054-6.083-46.308-22.196-65.343-36.002-17.457-12.666-20.251-18.981-7.431-15.248l2.831.824 2.831.825c-11.229-3.269-8.78 2.269 6.52 13.362 14.225 10.315 34.987 22.119 50.053 28.671-3.352-1.457-6.986-3.173-10.766-5.077l1.02 3.672c7.564 3.797 14.605 6.945 20.291 8.97 5.826 2.076 9.474 2.712 10.993 2.099Z" clip-rule="evenodd"/><path fill="url(#B)" fill-rule="evenodd" d="M120.395 130.656a1.07 1.07 0 0 1 .025-.047l-.006.01-.019.037Zm.362 13.699c2.554 2.415 6.188 5.362 10.881 8.769 19.035 13.806 48.289 29.919 65.343 36.002 7.024 2.503 10.881 2.912 11.661 1.566l4.03-6.964c-.78 1.347-4.637.938-11.661-1.566-12.48-4.448-31.481-14.266-48.236-24.621l-4.025 6.954a327.207 327.207 0 0 1-7.782-4.956l4.025-6.956a311.721 311.721 0 0 1-2.32-1.542l-4.025 6.956a232.088 232.088 0 0 1-7.003-4.875c-4.697-3.404-8.332-6.351-10.888-8.767Z" clip-rule="evenodd"/><path stroke="#0500FF" stroke-miterlimit="10" stroke-width=".698" d="M208.472 177.09c-1.418-1.352-2.843-2.708-4.26-4.061.237.229.466.453.684.668-2.249-2.253-5.715-5.113-10.363-8.488-16.681-12.094-42.326-26.225-57.259-31.547a60.503 60.503 0 0 0-3.584-1.159c.072.023.139.034.21.057l-5.661-1.649c-12.82-3.733-10.026 2.582 7.436 15.246 19.035 13.806 48.283 29.921 65.343 36.001 12.758 4.546 15.069 2.188 7.46-5.07l-.006.002Z"/><path stroke="#0500FF" stroke-miterlimit="10" stroke-width=".698" d="m212.672 183.728-4.03 6.963c-.779 1.347-4.637.938-11.66-1.566-17.054-6.082-46.308-22.195-65.343-36.001-11.192-8.124-16.357-13.633-15.241-15.556l4.024-6.962c-1.116 1.924 4.051 7.439 15.247 15.554 19.035 13.806 48.283 29.921 65.343 36.002 7.023 2.503 10.881 2.912 11.66 1.566Z"/><path fill="#1B1B1C" d="M140.969 159.54a324.055 324.055 0 0 0 7.782 4.956l4.03-6.963a336.143 336.143 0 0 1-7.782-4.956l-4.03 6.963Zm1.71-8.505a232.088 232.088 0 0 1-7.003-4.875c-11.198-8.121-16.363-13.63-15.253-15.552l-4.024 6.961c-1.116 1.924 4.051 7.44 15.247 15.555a232.088 232.088 0 0 0 7.003 4.875l4.03-6.964Z"/><path fill="#47FD92" stroke="#0500FF" stroke-miterlimit="10" stroke-width=".602" d="m128.394 129.635-.321 7.772 91.691 3.585.32-7.772c.05-1.265-20.434-3.097-45.753-4.091-25.319-.988-45.888-.765-45.937.5v.006Z"/><path fill="#1B1B1C" stroke="#0500FF" stroke-miterlimit="10" stroke-width=".602" d="M219.767 140.989c.051-1.267-20.432-3.097-45.752-4.087-25.32-.99-45.888-.766-45.94.501-.052 1.266 20.432 3.096 45.752 4.086 25.32.99 45.888.766 45.94-.5Z"/><defs><linearGradient id="b" x1="123.761" x2="187.556" y1="88.978" y2="103.019" gradientUnits="userSpaceOnUse"><stop stop-color="#fff"/><stop offset="1" stop-color="#fff" stop-opacity="0"/></linearGradient><linearGradient id="c" x1="192.77" x2="122.429" y1="106.839" y2="91.358" gradientUnits="userSpaceOnUse"><stop stop-color="#fff"/><stop offset="1" stop-color="#fff" stop-opacity="0"/></linearGradient><linearGradient id="e" x1="114.88" x2="144.394" y1="48.725" y2="121.848" gradientUnits="userSpaceOnUse"><stop stop-color="#fff"/><stop offset="1" stop-color="#fff" stop-opacity="0"/></linearGradient><linearGradient id="h" x1="130.102" x2="43.35" y1="108.025" y2="64.956" gradientUnits="userSpaceOnUse"><stop stop-color="#fff"/><stop offset="1" stop-color="#fff" stop-opacity="0"/></linearGradient><linearGradient id="i" x1="50.857" x2="126.878" y1="62.597" y2="100.339" gradientUnits="userSpaceOnUse"><stop stop-color="#fff"/><stop offset="1" stop-color="#fff" stop-opacity="0"/></linearGradient><linearGradient id="k" x1="94.622" x2="34.103" y1="91.98" y2="126.956" gradientUnits="userSpaceOnUse"><stop stop-color="#fff"/><stop offset="1" stop-color="#fff" stop-opacity="0"/></linearGradient><linearGradient id="l" x1="30.343" x2="99.398" y1="128.213" y2="88.304" gradientUnits="userSpaceOnUse"><stop stop-color="#fff"/><stop offset="1" stop-color="#fff" stop-opacity="0"/></linearGradient><linearGradient id="n" x1="27.93" x2="93.421" y1="131.987" y2="170.882" gradientUnits="userSpaceOnUse"><stop stop-color="#fff"/><stop offset="1" stop-color="#fff" stop-opacity="0"/></linearGradient><linearGradient id="o" x1="103.863" x2="86.421" y1="153.314" y2="142.955" gradientUnits="userSpaceOnUse"><stop stop-color="#fff"/><stop offset="1" stop-color="#fff" stop-opacity="0"/></linearGradient><linearGradient id="p" x1="89.857" x2="32.459" y1="170.017" y2="135.927" gradientUnits="userSpaceOnUse"><stop stop-color="#fff"/><stop offset="1" stop-color="#fff" stop-opacity="0"/></linearGradient><linearGradient id="r" x1="63.549" x2="101.939" y1="216.407" y2="141.496" gradientUnits="userSpaceOnUse"><stop stop-color="#fff"/><stop offset="1" stop-color="#fff" stop-opacity="0"/></linearGradient><linearGradient id="s" x1="103.536" x2="59.728" y1="135.076" y2="220.557" gradientUnits="userSpaceOnUse"><stop stop-color="#fff"/><stop offset="1" stop-color="#fff" stop-opacity="0"/></linearGradient><linearGradient id="t" x1="52.486" x2="97.053" y1="216.293" y2="129.329" gradientUnits="userSpaceOnUse"><stop stop-color="#fff"/><stop offset="1" stop-color="#fff" stop-opacity="0"/></linearGradient><linearGradient id="v" x1="117.408" x2="151.693" y1="224.772" y2="155.096" gradientUnits="userSpaceOnUse"><stop stop-color="#fff"/><stop offset="1" stop-color="#fff" stop-opacity="0"/></linearGradient><linearGradient id="w" x1="150.83" x2="111.709" y1="149.901" y2="229.404" gradientUnits="userSpaceOnUse"><stop stop-color="#fff"/><stop offset="1" stop-color="#fff" stop-opacity="0"/></linearGradient><linearGradient id="x" x1="150.282" x2="109.45" y1="151.11" y2="234.091" gradientUnits="userSpaceOnUse"><stop stop-color="#fff"/><stop offset="1" stop-color="#fff" stop-opacity="0"/></linearGradient><linearGradient id="z" x1="138.856" x2="196.078" y1="165.966" y2="145.159" gradientUnits="userSpaceOnUse"><stop stop-color="#fff"/><stop offset="1" stop-color="#fff" stop-opacity="0"/></linearGradient><linearGradient id="A" x1="198" x2="133.903" y1="145.725" y2="169.032" gradientUnits="userSpaceOnUse"><stop stop-color="#fff"/><stop offset="1" stop-color="#fff" stop-opacity="0"/></linearGradient><linearGradient id="B" x1="131.141" x2="199.68" y1="172.935" y2="148.013" gradientUnits="userSpaceOnUse"><stop stop-color="#fff"/><stop offset="1" stop-color="#fff" stop-opacity="0"/></linearGradient></defs></svg>